<svg width="115" height="28" viewBox="0 0 115 28" fill="none" xmlns="http://www.w3.org/2000/svg">
<path fill-rule="evenodd" clip-rule="evenodd" d="M10.19 0C0 0 0 3.00403 0 10.3905V17.6095C0 24.6345 1.44314 28 10.19 28H28.81C36.7101 28 39 26.0326 39 17.6095V10.3905C39 2.61547 38.6149 0 28.81 0H10.19ZM15.5157 8.1547L26.0274 13.8028L15.5157 19.4873V8.1547Z" fill="#77D7DB"/>
<path fill-rule="evenodd" clip-rule="evenodd" d="M91.6803 27.3793C104.51 27.3793 111.531 17.2274 111.531 8.43865C111.531 8.15304 111.531 7.86741 111.517 7.5818C112.878 6.64711 114.061 5.46582 115 4.12868C113.748 4.66094 112.401 5.01139 110.986 5.18016C112.429 4.36229 113.531 3.05116 114.061 1.49332C112.714 2.25926 111.218 2.80452 109.626 3.1031C108.347 1.80491 106.537 1 104.537 1C100.687 1 97.5578 3.98591 97.5578 7.6598C97.5578 8.17908 97.6259 8.68525 97.7347 9.17856C91.9388 8.90594 86.7959 6.24476 83.3537 2.22036C82.7551 3.20699 82.415 4.34927 82.415 5.56958C82.415 7.88036 83.6531 9.91858 85.517 11.1129C84.3742 11.074 83.2993 10.7755 82.3605 10.2821C82.3605 10.3081 82.3605 10.3341 82.3605 10.373C82.3605 13.5925 84.7687 16.2927 87.9524 16.9029C87.3673 17.0587 86.7551 17.1366 86.1156 17.1366C85.6667 17.1366 85.2313 17.0977 84.8095 17.0198C85.6939 19.6681 88.2789 21.5894 91.3265 21.6413C88.932 23.4328 85.9252 24.4974 82.6599 24.4974C82.102 24.4974 81.5442 24.4714 81 24.4065C84.0748 26.2759 87.7483 27.3793 91.6803 27.3793Z" fill="#77D7DB"/>
</svg>
