<svg width="357" height="204" viewBox="0 0 357 204" fill="none" xmlns="http://www.w3.org/2000/svg">
<path d="M16.0312 156H2.875V133.156H16.0312V137.125H7.71875V142.141H15.4531V146.109H7.71875V152H16.0312V156ZM36.5625 156H31.7969V145.797C31.7969 144.536 31.5729 143.594 31.125 142.969C30.6771 142.333 29.9635 142.016 28.9844 142.016C27.651 142.016 26.6875 142.464 26.0938 143.359C25.5 144.245 25.2031 145.719 25.2031 147.781V156H20.4375V138.531H24.0781L24.7188 140.766H24.9844C25.5156 139.922 26.2448 139.286 27.1719 138.859C28.1094 138.422 29.1719 138.203 30.3594 138.203C32.3906 138.203 33.9323 138.755 34.9844 139.859C36.0365 140.953 36.5625 142.536 36.5625 144.609V156ZM48.8281 152.516C49.6615 152.516 50.6615 152.333 51.8281 151.969V155.516C50.6406 156.047 49.1823 156.312 47.4531 156.312C45.5469 156.312 44.1562 155.833 43.2812 154.875C42.4167 153.906 41.9844 152.458 41.9844 150.531V142.109H39.7031V140.094L42.3281 138.5L43.7031 134.812H46.75V138.531H51.6406V142.109H46.75V150.531C46.75 151.208 46.9375 151.708 47.3125 152.031C47.6979 152.354 48.2031 152.516 48.8281 152.516ZM62.6094 141.594C61.599 141.594 60.8073 141.917 60.2344 142.562C59.6615 143.198 59.3333 144.104 59.25 145.281H65.9375C65.9167 144.104 65.6094 143.198 65.0156 142.562C64.4219 141.917 63.6198 141.594 62.6094 141.594ZM63.2812 156.312C60.4688 156.312 58.2708 155.536 56.6875 153.984C55.1042 152.432 54.3125 150.234 54.3125 147.391C54.3125 144.464 55.0417 142.203 56.5 140.609C57.9688 139.005 59.9948 138.203 62.5781 138.203C65.0469 138.203 66.9688 138.906 68.3438 140.312C69.7188 141.719 70.4062 143.661 70.4062 146.141V148.453H59.1406C59.1927 149.807 59.5938 150.865 60.3438 151.625C61.0938 152.385 62.1458 152.766 63.5 152.766C64.5521 152.766 65.5469 152.656 66.4844 152.438C67.4219 152.219 68.401 151.87 69.4219 151.391V155.078C68.5885 155.495 67.6979 155.802 66.75 156C65.8021 156.208 64.6458 156.312 63.2812 156.312ZM84.0312 138.203C84.6771 138.203 85.2135 138.25 85.6406 138.344L85.2812 142.812C84.8958 142.708 84.4271 142.656 83.875 142.656C82.3542 142.656 81.1667 143.047 80.3125 143.828C79.4688 144.609 79.0469 145.703 79.0469 147.109V156H74.2812V138.531H77.8906L78.5938 141.469H78.8281C79.3698 140.49 80.099 139.703 81.0156 139.109C81.9427 138.505 82.9479 138.203 84.0312 138.203ZM99.9062 156L98.9844 153.625H98.8594C98.0573 154.635 97.2292 155.339 96.375 155.734C95.5312 156.12 94.4271 156.312 93.0625 156.312C91.3854 156.312 90.0625 155.833 89.0938 154.875C88.1354 153.917 87.6562 152.552 87.6562 150.781C87.6562 148.927 88.3021 147.562 89.5938 146.688C90.8958 145.802 92.8542 145.312 95.4688 145.219L98.5 145.125V144.359C98.5 142.589 97.5938 141.703 95.7812 141.703C94.3854 141.703 92.7448 142.125 90.8594 142.969L89.2812 139.75C91.2917 138.698 93.5208 138.172 95.9688 138.172C98.3125 138.172 100.109 138.682 101.359 139.703C102.609 140.724 103.234 142.276 103.234 144.359V156H99.9062ZM98.5 147.906L96.6562 147.969C95.2708 148.01 94.2396 148.26 93.5625 148.719C92.8854 149.177 92.5469 149.875 92.5469 150.812C92.5469 152.156 93.3177 152.828 94.8594 152.828C95.9635 152.828 96.8438 152.51 97.5 151.875C98.1667 151.24 98.5 150.396 98.5 149.344V147.906ZM115.516 152.516C116.349 152.516 117.349 152.333 118.516 151.969V155.516C117.328 156.047 115.87 156.312 114.141 156.312C112.234 156.312 110.844 155.833 109.969 154.875C109.104 153.906 108.672 152.458 108.672 150.531V142.109H106.391V140.094L109.016 138.5L110.391 134.812H113.438V138.531H118.328V142.109H113.438V150.531C113.438 151.208 113.625 151.708 114 152.031C114.385 152.354 114.891 152.516 115.516 152.516ZM129.297 141.594C128.286 141.594 127.495 141.917 126.922 142.562C126.349 143.198 126.021 144.104 125.938 145.281H132.625C132.604 144.104 132.297 143.198 131.703 142.562C131.109 141.917 130.307 141.594 129.297 141.594ZM129.969 156.312C127.156 156.312 124.958 155.536 123.375 153.984C121.792 152.432 121 150.234 121 147.391C121 144.464 121.729 142.203 123.188 140.609C124.656 139.005 126.682 138.203 129.266 138.203C131.734 138.203 133.656 138.906 135.031 140.312C136.406 141.719 137.094 143.661 137.094 146.141V148.453H125.828C125.88 149.807 126.281 150.865 127.031 151.625C127.781 152.385 128.833 152.766 130.188 152.766C131.24 152.766 132.234 152.656 133.172 152.438C134.109 152.219 135.089 151.87 136.109 151.391V155.078C135.276 155.495 134.385 155.802 133.438 156C132.49 156.208 131.333 156.312 129.969 156.312ZM168.609 144.359C168.609 148.12 167.536 151 165.391 153C163.255 155 160.167 156 156.125 156H149.656V133.156H156.828C160.557 133.156 163.453 134.141 165.516 136.109C167.578 138.078 168.609 140.828 168.609 144.359ZM163.578 144.484C163.578 139.578 161.411 137.125 157.078 137.125H154.5V152H156.578C161.245 152 163.578 149.495 163.578 144.484ZM180.203 141.594C179.193 141.594 178.401 141.917 177.828 142.562C177.255 143.198 176.927 144.104 176.844 145.281H183.531C183.51 144.104 183.203 143.198 182.609 142.562C182.016 141.917 181.214 141.594 180.203 141.594ZM180.875 156.312C178.062 156.312 175.865 155.536 174.281 153.984C172.698 152.432 171.906 150.234 171.906 147.391C171.906 144.464 172.635 142.203 174.094 140.609C175.562 139.005 177.589 138.203 180.172 138.203C182.641 138.203 184.562 138.906 185.938 140.312C187.312 141.719 188 143.661 188 146.141V148.453H176.734C176.786 149.807 177.188 150.865 177.938 151.625C178.688 152.385 179.74 152.766 181.094 152.766C182.146 152.766 183.141 152.656 184.078 152.438C185.016 152.219 185.995 151.87 187.016 151.391V155.078C186.182 155.495 185.292 155.802 184.344 156C183.396 156.208 182.24 156.312 180.875 156.312ZM200.562 156V133.156H205.406V152H214.672V156H200.562ZM229.375 156L228.453 153.625H228.328C227.526 154.635 226.698 155.339 225.844 155.734C225 156.12 223.896 156.312 222.531 156.312C220.854 156.312 219.531 155.833 218.562 154.875C217.604 153.917 217.125 152.552 217.125 150.781C217.125 148.927 217.771 147.562 219.062 146.688C220.365 145.802 222.323 145.312 224.938 145.219L227.969 145.125V144.359C227.969 142.589 227.062 141.703 225.25 141.703C223.854 141.703 222.214 142.125 220.328 142.969L218.75 139.75C220.76 138.698 222.99 138.172 225.438 138.172C227.781 138.172 229.578 138.682 230.828 139.703C232.078 140.724 232.703 142.276 232.703 144.359V156H229.375ZM227.969 147.906L226.125 147.969C224.74 148.01 223.708 148.26 223.031 148.719C222.354 149.177 222.016 149.875 222.016 150.812C222.016 152.156 222.786 152.828 224.328 152.828C225.432 152.828 226.312 152.51 226.969 151.875C227.635 151.24 227.969 150.396 227.969 149.344V147.906ZM249.812 150.812C249.812 152.604 249.188 153.969 247.938 154.906C246.698 155.844 244.839 156.312 242.359 156.312C241.089 156.312 240.005 156.224 239.109 156.047C238.214 155.88 237.375 155.63 236.594 155.297V151.359C237.479 151.776 238.474 152.125 239.578 152.406C240.693 152.688 241.672 152.828 242.516 152.828C244.245 152.828 245.109 152.328 245.109 151.328C245.109 150.953 244.995 150.651 244.766 150.422C244.536 150.182 244.141 149.917 243.578 149.625C243.016 149.323 242.266 148.974 241.328 148.578C239.984 148.016 238.995 147.495 238.359 147.016C237.734 146.536 237.276 145.99 236.984 145.375C236.703 144.75 236.562 143.984 236.562 143.078C236.562 141.526 237.161 140.328 238.359 139.484C239.568 138.63 241.276 138.203 243.484 138.203C245.589 138.203 247.635 138.661 249.625 139.578L248.188 143.016C247.312 142.641 246.495 142.333 245.734 142.094C244.974 141.854 244.198 141.734 243.406 141.734C242 141.734 241.297 142.115 241.297 142.875C241.297 143.302 241.521 143.672 241.969 143.984C242.427 144.297 243.422 144.76 244.953 145.375C246.318 145.927 247.318 146.443 247.953 146.922C248.589 147.401 249.057 147.953 249.359 148.578C249.661 149.203 249.812 149.948 249.812 150.812ZM21.4688 173.156V187.938C21.4688 189.625 21.0885 191.104 20.3281 192.375C19.5781 193.646 18.4896 194.62 17.0625 195.297C15.6354 195.974 13.9479 196.312 12 196.312C9.0625 196.312 6.78125 195.562 5.15625 194.062C3.53125 192.552 2.71875 190.49 2.71875 187.875V173.156H7.54688V187.141C7.54688 188.901 7.90104 190.193 8.60938 191.016C9.31771 191.839 10.4896 192.25 12.125 192.25C13.7083 192.25 14.8542 191.839 15.5625 191.016C16.2812 190.182 16.6406 188.88 16.6406 187.109V173.156H21.4688ZM9.40625 171.328V170.906C11.1979 168.823 12.4219 167.255 13.0781 166.203H18.4219V166.531C17.8802 167.073 16.9531 167.88 15.6406 168.953C14.3385 170.016 13.3177 170.807 12.5781 171.328H9.40625ZM31.4531 196H26.6875V171.688H31.4531V196ZM43.8281 192.516C44.6615 192.516 45.6615 192.333 46.8281 191.969V195.516C45.6406 196.047 44.1823 196.312 42.4531 196.312C40.5469 196.312 39.1562 195.833 38.2812 194.875C37.4167 193.906 36.9844 192.458 36.9844 190.531V182.109H34.7031V180.094L37.3281 178.5L38.7031 174.812H41.75V178.531H46.6406V182.109H41.75V190.531C41.75 191.208 41.9375 191.708 42.3125 192.031C42.6979 192.354 43.2031 192.516 43.8281 192.516ZM50.1719 174.016C50.1719 172.464 51.0365 171.688 52.7656 171.688C54.4948 171.688 55.3594 172.464 55.3594 174.016C55.3594 174.755 55.1406 175.333 54.7031 175.75C54.276 176.156 53.6302 176.359 52.7656 176.359C51.0365 176.359 50.1719 175.578 50.1719 174.016ZM55.1406 196H50.375V178.531H55.1406V196ZM75.7969 196H71.0312V185.797C71.0312 184.536 70.8177 183.594 70.3906 182.969C69.974 182.333 69.3125 182.016 68.4062 182.016C67.1875 182.016 66.3021 182.464 65.75 183.359C65.1979 184.255 64.9219 185.729 64.9219 187.781V196H60.1562V178.531H63.7969L64.4375 180.766H64.7031C65.1719 179.964 65.849 179.339 66.7344 178.891C67.6198 178.432 68.6354 178.203 69.7812 178.203C72.3958 178.203 74.1667 179.057 75.0938 180.766H75.5156C75.9844 179.953 76.6719 179.323 77.5781 178.875C78.4948 178.427 79.526 178.203 80.6719 178.203C82.651 178.203 84.1458 178.714 85.1562 179.734C86.1771 180.745 86.6875 182.37 86.6875 184.609V196H81.9062V185.797C81.9062 184.536 81.6927 183.594 81.2656 182.969C80.849 182.333 80.1875 182.016 79.2812 182.016C78.1146 182.016 77.2396 182.432 76.6562 183.266C76.0833 184.099 75.7969 185.422 75.7969 187.234V196ZM102.688 196L101.766 193.625H101.641C100.839 194.635 100.01 195.339 99.1562 195.734C98.3125 196.12 97.2083 196.312 95.8438 196.312C94.1667 196.312 92.8438 195.833 91.875 194.875C90.9167 193.917 90.4375 192.552 90.4375 190.781C90.4375 188.927 91.0833 187.562 92.375 186.688C93.6771 185.802 95.6354 185.312 98.25 185.219L101.281 185.125V184.359C101.281 182.589 100.375 181.703 98.5625 181.703C97.1667 181.703 95.526 182.125 93.6406 182.969L92.0625 179.75C94.0729 178.698 96.3021 178.172 98.75 178.172C101.094 178.172 102.891 178.682 104.141 179.703C105.391 180.724 106.016 182.276 106.016 184.359V196H102.688ZM101.281 187.906L99.4375 187.969C98.0521 188.01 97.0208 188.26 96.3438 188.719C95.6667 189.177 95.3281 189.875 95.3281 190.812C95.3281 192.156 96.099 192.828 97.6406 192.828C98.7448 192.828 99.625 192.51 100.281 191.875C100.948 191.24 101.281 190.396 101.281 189.344V187.906ZM123.125 190.812C123.125 192.604 122.5 193.969 121.25 194.906C120.01 195.844 118.151 196.312 115.672 196.312C114.401 196.312 113.318 196.224 112.422 196.047C111.526 195.88 110.688 195.63 109.906 195.297V191.359C110.792 191.776 111.786 192.125 112.891 192.406C114.005 192.688 114.984 192.828 115.828 192.828C117.557 192.828 118.422 192.328 118.422 191.328C118.422 190.953 118.307 190.651 118.078 190.422C117.849 190.182 117.453 189.917 116.891 189.625C116.328 189.323 115.578 188.974 114.641 188.578C113.297 188.016 112.307 187.495 111.672 187.016C111.047 186.536 110.589 185.99 110.297 185.375C110.016 184.75 109.875 183.984 109.875 183.078C109.875 181.526 110.474 180.328 111.672 179.484C112.88 178.63 114.589 178.203 116.797 178.203C118.901 178.203 120.948 178.661 122.938 179.578L121.5 183.016C120.625 182.641 119.807 182.333 119.047 182.094C118.286 181.854 117.51 181.734 116.719 181.734C115.312 181.734 114.609 182.115 114.609 182.875C114.609 183.302 114.833 183.672 115.281 183.984C115.74 184.297 116.734 184.76 118.266 185.375C119.63 185.927 120.63 186.443 121.266 186.922C121.901 187.401 122.37 187.953 122.672 188.578C122.974 189.203 123.125 189.948 123.125 190.812ZM155.797 196H149.641L139.703 178.719H139.562C139.76 181.771 139.859 183.948 139.859 185.25V196H135.531V173.156H141.641L151.562 190.266H151.672C151.516 187.297 151.438 185.198 151.438 183.969V173.156H155.797V196ZM164.984 187.234C164.984 188.964 165.266 190.271 165.828 191.156C166.401 192.042 167.328 192.484 168.609 192.484C169.88 192.484 170.792 192.047 171.344 191.172C171.906 190.286 172.188 188.974 172.188 187.234C172.188 185.505 171.906 184.208 171.344 183.344C170.781 182.479 169.859 182.047 168.578 182.047C167.307 182.047 166.391 182.479 165.828 183.344C165.266 184.198 164.984 185.495 164.984 187.234ZM177.062 187.234C177.062 190.078 176.312 192.302 174.812 193.906C173.312 195.51 171.224 196.312 168.547 196.312C166.87 196.312 165.391 195.948 164.109 195.219C162.828 194.479 161.844 193.422 161.156 192.047C160.469 190.672 160.125 189.068 160.125 187.234C160.125 184.38 160.87 182.161 162.359 180.578C163.849 178.995 165.943 178.203 168.641 178.203C170.318 178.203 171.797 178.568 173.078 179.297C174.359 180.026 175.344 181.073 176.031 182.438C176.719 183.802 177.062 185.401 177.062 187.234ZM185.156 196L178.5 178.531H183.484L186.859 188.484C187.234 189.745 187.469 190.938 187.562 192.062H187.656C187.708 191.062 187.943 189.87 188.359 188.484L191.719 178.531H196.703L190.047 196H185.156ZM206.453 181.594C205.443 181.594 204.651 181.917 204.078 182.562C203.505 183.198 203.177 184.104 203.094 185.281H209.781C209.76 184.104 209.453 183.198 208.859 182.562C208.266 181.917 207.464 181.594 206.453 181.594ZM207.125 196.312C204.312 196.312 202.115 195.536 200.531 193.984C198.948 192.432 198.156 190.234 198.156 187.391C198.156 184.464 198.885 182.203 200.344 180.609C201.812 179.005 203.839 178.203 206.422 178.203C208.891 178.203 210.812 178.906 212.188 180.312C213.562 181.719 214.25 183.661 214.25 186.141V188.453H202.984C203.036 189.807 203.438 190.865 204.188 191.625C204.938 192.385 205.99 192.766 207.344 192.766C208.396 192.766 209.391 192.656 210.328 192.438C211.266 192.219 212.245 191.87 213.266 191.391V195.078C212.432 195.495 211.542 195.802 210.594 196C209.646 196.208 208.49 196.312 207.125 196.312ZM223.656 196.312C221.604 196.312 219.99 195.516 218.812 193.922C217.646 192.328 217.062 190.12 217.062 187.297C217.062 184.432 217.656 182.203 218.844 180.609C220.042 179.005 221.688 178.203 223.781 178.203C225.979 178.203 227.656 179.057 228.812 180.766H228.969C228.729 179.464 228.609 178.302 228.609 177.281V171.688H233.391V196H229.734L228.812 193.734H228.609C227.526 195.453 225.875 196.312 223.656 196.312ZM225.328 192.516C226.547 192.516 227.438 192.161 228 191.453C228.573 190.745 228.885 189.542 228.938 187.844V187.328C228.938 185.453 228.646 184.109 228.062 183.297C227.49 182.484 226.552 182.078 225.25 182.078C224.188 182.078 223.359 182.531 222.766 183.438C222.182 184.333 221.891 185.641 221.891 187.359C221.891 189.078 222.188 190.37 222.781 191.234C223.375 192.089 224.224 192.516 225.328 192.516ZM249.469 196L248.547 193.625H248.422C247.62 194.635 246.792 195.339 245.938 195.734C245.094 196.12 243.99 196.312 242.625 196.312C240.948 196.312 239.625 195.833 238.656 194.875C237.698 193.917 237.219 192.552 237.219 190.781C237.219 188.927 237.865 187.562 239.156 186.688C240.458 185.802 242.417 185.312 245.031 185.219L248.062 185.125V184.359C248.062 182.589 247.156 181.703 245.344 181.703C243.948 181.703 242.307 182.125 240.422 182.969L238.844 179.75C240.854 178.698 243.083 178.172 245.531 178.172C247.875 178.172 249.672 178.682 250.922 179.703C252.172 180.724 252.797 182.276 252.797 184.359V196H249.469ZM248.062 187.906L246.219 187.969C244.833 188.01 243.802 188.26 243.125 188.719C242.448 189.177 242.109 189.875 242.109 190.812C242.109 192.156 242.88 192.828 244.422 192.828C245.526 192.828 246.406 192.51 247.062 191.875C247.729 191.24 248.062 190.396 248.062 189.344V187.906ZM263.25 196.312C261.198 196.312 259.583 195.516 258.406 193.922C257.24 192.328 256.656 190.12 256.656 187.297C256.656 184.432 257.25 182.203 258.438 180.609C259.635 179.005 261.281 178.203 263.375 178.203C265.573 178.203 267.25 179.057 268.406 180.766H268.562C268.323 179.464 268.203 178.302 268.203 177.281V171.688H272.984V196H269.328L268.406 193.734H268.203C267.12 195.453 265.469 196.312 263.25 196.312ZM264.922 192.516C266.141 192.516 267.031 192.161 267.594 191.453C268.167 190.745 268.479 189.542 268.531 187.844V187.328C268.531 185.453 268.24 184.109 267.656 183.297C267.083 182.484 266.146 182.078 264.844 182.078C263.781 182.078 262.953 182.531 262.359 183.438C261.776 184.333 261.484 185.641 261.484 187.359C261.484 189.078 261.781 190.37 262.375 191.234C262.969 192.089 263.818 192.516 264.922 192.516ZM285.203 181.594C284.193 181.594 283.401 181.917 282.828 182.562C282.255 183.198 281.927 184.104 281.844 185.281H288.531C288.51 184.104 288.203 183.198 287.609 182.562C287.016 181.917 286.214 181.594 285.203 181.594ZM285.875 196.312C283.062 196.312 280.865 195.536 279.281 193.984C277.698 192.432 276.906 190.234 276.906 187.391C276.906 184.464 277.635 182.203 279.094 180.609C280.562 179.005 282.589 178.203 285.172 178.203C287.641 178.203 289.562 178.906 290.938 180.312C292.312 181.719 293 183.661 293 186.141V188.453H281.734C281.786 189.807 282.188 190.865 282.938 191.625C283.688 192.385 284.74 192.766 286.094 192.766C287.146 192.766 288.141 192.656 289.078 192.438C290.016 192.219 290.995 191.87 292.016 191.391V195.078C291.182 195.495 290.292 195.802 289.344 196C288.396 196.208 287.24 196.312 285.875 196.312ZM309.062 190.812C309.062 192.604 308.438 193.969 307.188 194.906C305.948 195.844 304.089 196.312 301.609 196.312C300.339 196.312 299.255 196.224 298.359 196.047C297.464 195.88 296.625 195.63 295.844 195.297V191.359C296.729 191.776 297.724 192.125 298.828 192.406C299.943 192.688 300.922 192.828 301.766 192.828C303.495 192.828 304.359 192.328 304.359 191.328C304.359 190.953 304.245 190.651 304.016 190.422C303.786 190.182 303.391 189.917 302.828 189.625C302.266 189.323 301.516 188.974 300.578 188.578C299.234 188.016 298.245 187.495 297.609 187.016C296.984 186.536 296.526 185.99 296.234 185.375C295.953 184.75 295.812 183.984 295.812 183.078C295.812 181.526 296.411 180.328 297.609 179.484C298.818 178.63 300.526 178.203 302.734 178.203C304.839 178.203 306.885 178.661 308.875 179.578L307.438 183.016C306.562 182.641 305.745 182.333 304.984 182.094C304.224 181.854 303.448 181.734 302.656 181.734C301.25 181.734 300.547 182.115 300.547 182.875C300.547 183.302 300.771 183.672 301.219 183.984C301.677 184.297 302.672 184.76 304.203 185.375C305.568 185.927 306.568 186.443 307.203 186.922C307.839 187.401 308.307 187.953 308.609 188.578C308.911 189.203 309.062 189.948 309.062 190.812Z" fill="white"/>
<g clip-path="url(#clip0_3322_22)">
<path d="M59.0476 35.1645C56.9215 34.2417 54.9877 32.9287 53.3466 31.2937C51.7056 29.655 50.386 27.7244 49.4558 25.6014C48.5125 23.3775 48.0277 20.9865 48.0305 18.5714C48.0277 16.1608 48.5125 13.7745 49.4558 11.5556C50.3842 9.43159 51.704 7.50065 53.3466 5.86331C54.9802 4.22291 56.9161 2.91333 59.0476 2.00674C61.2681 1.05918 63.6591 0.574903 66.0739 0.583659C68.4888 0.573294 70.8803 1.05763 73.1004 2.00674C75.2293 2.91801 77.1643 4.22701 78.8013 5.86331C80.4369 7.49749 81.7431 9.42987 82.6494 11.5556C83.5984 13.7728 84.0834 16.1602 84.0746 18.5714C84.0837 20.9871 83.5987 23.3793 82.6494 25.6014C81.7397 27.7253 80.4339 29.657 78.8013 31.2937C77.1575 32.9253 75.2244 34.2379 73.1004 35.1645C70.8784 36.1074 68.4882 36.5915 66.0739 36.5875C63.6597 36.5903 61.2699 36.1063 59.0476 35.1645Z" fill="white"/>
<path d="M119.435 19.9086C121.983 19.8873 124.42 18.8648 126.219 17.0625C127.153 16.1616 127.889 15.0763 128.38 13.8757C128.87 12.6751 129.105 11.3856 129.069 10.0894C129.077 7.47229 128.053 4.9572 126.219 3.08784C125.344 2.15561 124.293 1.4063 123.126 0.88348C121.959 0.360662 120.699 0.0747911 119.421 0.0424805H106.465C106.223 0.0424805 106.964 0.697059 106.964 0.938982V36.2598C106.964 36.5017 106.223 37.0425 106.465 37.0425H127.986C128.114 37.0425 128.214 36.7721 128.285 36.6582C128.32 36.59 128.339 36.5143 128.339 36.4376C128.339 36.3609 128.32 36.2853 128.285 36.2171L119.435 19.9086Z" fill="white"/>
<path d="M161.037 35.1644C158.913 34.239 156.979 32.9263 155.336 31.2936C153.695 29.655 152.376 27.7244 151.446 25.6013C150.502 23.3774 150.017 20.9865 150.02 18.5713C150.017 16.1608 150.502 13.7745 151.446 11.5556C152.374 9.43155 153.694 7.50062 155.336 5.86327C156.972 4.22589 158.908 2.91673 161.037 2.0067C163.258 1.05914 165.649 0.574866 168.064 0.583622C170.483 0.574528 172.879 1.05878 175.104 2.0067C177.234 2.91673 179.169 4.22589 180.805 5.86327C182.446 7.49357 183.753 9.42692 184.654 11.5556C185.61 13.7705 186.095 16.1595 186.079 18.5713C186.095 20.9878 185.61 23.3814 184.654 25.6013C183.749 27.7281 182.443 29.6608 180.805 31.2936C179.162 32.9263 177.229 34.239 175.104 35.1644C172.877 36.1063 170.483 36.5903 168.064 36.5875C165.65 36.5903 163.26 36.1063 161.037 35.1644Z" fill="white"/>
<path d="M14.7085 36.7439H0V0.782715H14.6657C21.6066 0.782715 26.1816 4.625 26.1816 10.2319C26.1717 11.8767 25.6863 13.4836 24.7836 14.8594C23.881 16.2353 22.5997 17.3216 21.0935 17.9877C22.9126 18.612 24.4955 19.7797 25.6274 21.3326C26.7594 22.8854 27.3856 24.7482 27.4215 26.6685C27.4215 32.6739 22.3763 36.7439 14.7085 36.7439Z" fill="white"/>
<path d="M9.22119 30.1975H13.2405C16.0909 30.1975 17.73 28.6179 17.73 26.526C17.73 24.434 16.0054 22.8544 13.4543 22.8544H9.47781V9.77637H13.5254" stroke="black" stroke-width="0.25" stroke-miterlimit="10"/>
<path d="M237.06 10.3886C236.402 8.40372 235.295 6.59701 233.824 5.10903C232.359 3.60061 230.571 2.44274 228.594 1.7221C227.071 1.15235 225.459 0.858364 223.833 0.854004C222.189 0.858551 220.558 1.15243 219.016 1.7221C217.026 2.44188 215.224 3.59944 213.743 5.10903C212.272 6.59701 211.165 8.40372 210.507 10.3886C209.082 14.5156 209.652 19.0125 209.652 23.296V35.5771C209.652 35.8048 209.652 36.4167 209.852 36.559C210.051 36.7013 210.179 37.0002 210.35 37.0002H237.259C237.43 37.0002 237.601 36.6728 237.744 36.559C237.886 36.4452 237.929 35.9756 237.929 35.7336C237.929 31.6494 237.929 27.4656 237.929 23.3813C237.929 19.2971 238.413 14.5156 237.06 10.3886Z" fill="white"/>
</g>
<defs>
<clipPath id="clip0_3322_22">
<rect width="238" height="37" fill="white"/>
</clipPath>
</defs>
</svg>
