<svg width="1265" height="393" viewBox="0 0 1265 393" fill="none" xmlns="http://www.w3.org/2000/svg">
<rect x="525" y="11" width="463" height="76" fill="#77D7DB"/>
<rect y="92" width="463" height="76" fill="#77D7DB"/>
<path d="M57.6562 44.7188C57.6562 52.2396 55.5104 58 51.2188 62C46.9479 66 40.7708 68 32.6875 68H19.75V22.3125H34.0938C41.5521 22.3125 47.3438 24.2812 51.4688 28.2188C55.5938 32.1562 57.6562 37.6562 57.6562 44.7188ZM47.5938 44.9688C47.5938 35.1562 43.2604 30.25 34.5938 30.25H29.4375V60H33.5938C42.9271 60 47.5938 54.9896 47.5938 44.9688ZM80.8438 39.1875C78.8229 39.1875 77.2396 39.8333 76.0938 41.125C74.9479 42.3958 74.2917 44.2083 74.125 46.5625H87.5C87.4583 44.2083 86.8438 42.3958 85.6562 41.125C84.4688 39.8333 82.8646 39.1875 80.8438 39.1875ZM82.1875 68.625C76.5625 68.625 72.1667 67.0729 69 63.9688C65.8333 60.8646 64.25 56.4688 64.25 50.7812C64.25 44.9271 65.7083 40.4062 68.625 37.2188C71.5625 34.0104 75.6146 32.4062 80.7812 32.4062C85.7188 32.4062 89.5625 33.8125 92.3125 36.625C95.0625 39.4375 96.4375 43.3229 96.4375 48.2812V52.9062H73.9062C74.0104 55.6146 74.8125 57.7292 76.3125 59.25C77.8125 60.7708 79.9167 61.5312 82.625 61.5312C84.7292 61.5312 86.7188 61.3125 88.5938 60.875C90.4688 60.4375 92.4271 59.7396 94.4688 58.7812V66.1562C92.8021 66.9896 91.0208 67.6042 89.125 68C87.2292 68.4167 84.9167 68.625 82.1875 68.625ZM128.562 57.625C128.562 61.2083 127.312 63.9375 124.812 65.8125C122.333 67.6875 118.615 68.625 113.656 68.625C111.115 68.625 108.948 68.4479 107.156 68.0938C105.365 67.7604 103.688 67.2604 102.125 66.5938V58.7188C103.896 59.5521 105.885 60.25 108.094 60.8125C110.323 61.375 112.281 61.6562 113.969 61.6562C117.427 61.6562 119.156 60.6562 119.156 58.6562C119.156 57.9062 118.927 57.3021 118.469 56.8438C118.01 56.3646 117.219 55.8333 116.094 55.25C114.969 54.6458 113.469 53.9479 111.594 53.1562C108.906 52.0312 106.927 50.9896 105.656 50.0312C104.406 49.0729 103.49 47.9792 102.906 46.75C102.344 45.5 102.062 43.9688 102.062 42.1562C102.062 39.0521 103.26 36.6562 105.656 34.9688C108.073 33.2604 111.49 32.4062 115.906 32.4062C120.115 32.4062 124.208 33.3229 128.188 35.1562L125.312 42.0312C123.562 41.2812 121.927 40.6667 120.406 40.1875C118.885 39.7083 117.333 39.4688 115.75 39.4688C112.938 39.4688 111.531 40.2292 111.531 41.75C111.531 42.6042 111.979 43.3438 112.875 43.9688C113.792 44.5938 115.781 45.5208 118.844 46.75C121.573 47.8542 123.573 48.8854 124.844 49.8438C126.115 50.8021 127.052 51.9062 127.656 53.1562C128.26 54.4062 128.562 55.8958 128.562 57.625ZM158.188 68L156.344 63.25H156.094C154.49 65.2708 152.833 66.6771 151.125 67.4688C149.438 68.2396 147.229 68.625 144.5 68.625C141.146 68.625 138.5 67.6667 136.562 65.75C134.646 63.8333 133.688 61.1042 133.688 57.5625C133.688 53.8542 134.979 51.125 137.562 49.375C140.167 47.6042 144.083 46.625 149.312 46.4375L155.375 46.25V44.7188C155.375 41.1771 153.562 39.4062 149.938 39.4062C147.146 39.4062 143.865 40.25 140.094 41.9375L136.938 35.5C140.958 33.3958 145.417 32.3438 150.312 32.3438C155 32.3438 158.594 33.3646 161.094 35.4062C163.594 37.4479 164.844 40.5521 164.844 44.7188V68H158.188ZM155.375 51.8125L151.688 51.9375C148.917 52.0208 146.854 52.5208 145.5 53.4375C144.146 54.3542 143.469 55.75 143.469 57.625C143.469 60.3125 145.01 61.6562 148.094 61.6562C150.302 61.6562 152.062 61.0208 153.375 59.75C154.708 58.4792 155.375 56.7917 155.375 54.6875V51.8125ZM194.188 32.4062C195.479 32.4062 196.552 32.5 197.406 32.6875L196.688 41.625C195.917 41.4167 194.979 41.3125 193.875 41.3125C190.833 41.3125 188.458 42.0938 186.75 43.6562C185.062 45.2188 184.219 47.4062 184.219 50.2188V68H174.688V33.0625H181.906L183.312 38.9375H183.781C184.865 36.9792 186.323 35.4062 188.156 34.2188C190.01 33.0104 192.021 32.4062 194.188 32.4062ZM223.25 32.4062C224.542 32.4062 225.615 32.5 226.469 32.6875L225.75 41.625C224.979 41.4167 224.042 41.3125 222.938 41.3125C219.896 41.3125 217.521 42.0938 215.812 43.6562C214.125 45.2188 213.281 47.4062 213.281 50.2188V68H203.75V33.0625H210.969L212.375 38.9375H212.844C213.927 36.9792 215.385 35.4062 217.219 34.2188C219.073 33.0104 221.083 32.4062 223.25 32.4062ZM240.406 50.4688C240.406 53.9271 240.969 56.5417 242.094 58.3125C243.24 60.0833 245.094 60.9688 247.656 60.9688C250.198 60.9688 252.021 60.0938 253.125 58.3438C254.25 56.5729 254.812 53.9479 254.812 50.4688C254.812 47.0104 254.25 44.4167 253.125 42.6875C252 40.9583 250.156 40.0938 247.594 40.0938C245.052 40.0938 243.219 40.9583 242.094 42.6875C240.969 44.3958 240.406 46.9896 240.406 50.4688ZM264.562 50.4688C264.562 56.1562 263.062 60.6042 260.062 63.8125C257.062 67.0208 252.885 68.625 247.531 68.625C244.177 68.625 241.219 67.8958 238.656 66.4375C236.094 64.9583 234.125 62.8438 232.75 60.0938C231.375 57.3438 230.688 54.1354 230.688 50.4688C230.688 44.7604 232.177 40.3229 235.156 37.1562C238.135 33.9896 242.323 32.4062 247.719 32.4062C251.073 32.4062 254.031 33.1354 256.594 34.5938C259.156 36.0521 261.125 38.1458 262.5 40.875C263.875 43.6042 264.562 46.8021 264.562 50.4688ZM281.969 68H272.438V19.375H281.969V68ZM301.531 68H292V19.375H301.531V68ZM333.75 68L331.906 63.25H331.656C330.052 65.2708 328.396 66.6771 326.688 67.4688C325 68.2396 322.792 68.625 320.062 68.625C316.708 68.625 314.062 67.6667 312.125 65.75C310.208 63.8333 309.25 61.1042 309.25 57.5625C309.25 53.8542 310.542 51.125 313.125 49.375C315.729 47.6042 319.646 46.625 324.875 46.4375L330.938 46.25V44.7188C330.938 41.1771 329.125 39.4062 325.5 39.4062C322.708 39.4062 319.427 40.25 315.656 41.9375L312.5 35.5C316.521 33.3958 320.979 32.3438 325.875 32.3438C330.562 32.3438 334.156 33.3646 336.656 35.4062C339.156 37.4479 340.406 40.5521 340.406 44.7188V68H333.75ZM330.938 51.8125L327.25 51.9375C324.479 52.0208 322.417 52.5208 321.062 53.4375C319.708 54.3542 319.031 55.75 319.031 57.625C319.031 60.3125 320.573 61.6562 323.656 61.6562C325.865 61.6562 327.625 61.0208 328.938 59.75C330.271 58.4792 330.938 56.7917 330.938 54.6875V51.8125ZM381.531 68H372V47.5938C372 45.0729 371.573 43.1875 370.719 41.9375C369.885 40.6667 368.562 40.0312 366.75 40.0312C364.312 40.0312 362.542 40.9271 361.438 42.7188C360.333 44.5104 359.781 47.4583 359.781 51.5625V68H350.25V33.0625H357.531L358.812 37.5312H359.344C360.281 35.9271 361.635 34.6771 363.406 33.7812C365.177 32.8646 367.208 32.4062 369.5 32.4062C374.729 32.4062 378.271 34.1146 380.125 37.5312H380.969C381.906 35.9062 383.281 34.6458 385.094 33.75C386.927 32.8542 388.99 32.4062 391.281 32.4062C395.24 32.4062 398.229 33.4271 400.25 35.4688C402.292 37.4896 403.312 40.7396 403.312 45.2188V68H393.75V47.5938C393.75 45.0729 393.323 43.1875 392.469 41.9375C391.635 40.6667 390.312 40.0312 388.5 40.0312C386.167 40.0312 384.417 40.8646 383.25 42.5312C382.104 44.1979 381.531 46.8438 381.531 50.4688V68ZM420.719 50.4688C420.719 53.9271 421.281 56.5417 422.406 58.3125C423.552 60.0833 425.406 60.9688 427.969 60.9688C430.51 60.9688 432.333 60.0938 433.438 58.3438C434.562 56.5729 435.125 53.9479 435.125 50.4688C435.125 47.0104 434.562 44.4167 433.438 42.6875C432.312 40.9583 430.469 40.0938 427.906 40.0938C425.365 40.0938 423.531 40.9583 422.406 42.6875C421.281 44.3958 420.719 46.9896 420.719 50.4688ZM444.875 50.4688C444.875 56.1562 443.375 60.6042 440.375 63.8125C437.375 67.0208 433.198 68.625 427.844 68.625C424.49 68.625 421.531 67.8958 418.969 66.4375C416.406 64.9583 414.438 62.8438 413.062 60.0938C411.688 57.3438 411 54.1354 411 50.4688C411 44.7604 412.49 40.3229 415.469 37.1562C418.448 33.9896 422.635 32.4062 428.031 32.4062C431.385 32.4062 434.344 33.1354 436.906 34.5938C439.469 36.0521 441.438 38.1458 442.812 40.875C444.188 43.6042 444.875 46.8021 444.875 50.4688ZM477.125 57.625C477.125 61.2083 475.875 63.9375 473.375 65.8125C470.896 67.6875 467.177 68.625 462.219 68.625C459.677 68.625 457.51 68.4479 455.719 68.0938C453.927 67.7604 452.25 67.2604 450.688 66.5938V58.7188C452.458 59.5521 454.448 60.25 456.656 60.8125C458.885 61.375 460.844 61.6562 462.531 61.6562C465.99 61.6562 467.719 60.6562 467.719 58.6562C467.719 57.9062 467.49 57.3021 467.031 56.8438C466.573 56.3646 465.781 55.8333 464.656 55.25C463.531 54.6458 462.031 53.9479 460.156 53.1562C457.469 52.0312 455.49 50.9896 454.219 50.0312C452.969 49.0729 452.052 47.9792 451.469 46.75C450.906 45.5 450.625 43.9688 450.625 42.1562C450.625 39.0521 451.823 36.6562 454.219 34.9688C456.635 33.2604 460.052 32.4062 464.469 32.4062C468.677 32.4062 472.771 33.3229 476.75 35.1562L473.875 42.0312C472.125 41.2812 470.49 40.6667 468.969 40.1875C467.448 39.7083 465.896 39.4688 464.312 39.4688C461.5 39.4688 460.094 40.2292 460.094 41.75C460.094 42.6042 460.542 43.3438 461.438 43.9688C462.354 44.5938 464.344 45.5208 467.406 46.75C470.135 47.8542 472.135 48.8854 473.406 49.8438C474.677 50.8021 475.615 51.9062 476.219 53.1562C476.823 54.4062 477.125 55.8958 477.125 57.625ZM496.188 33.0625H506.625L513.219 52.7188C513.781 54.4271 514.167 56.4479 514.375 58.7812H514.562C514.792 56.6354 515.24 54.6146 515.906 52.7188L522.375 33.0625H532.594L517.812 72.4688C516.458 76.1146 514.521 78.8438 512 80.6562C509.5 82.4688 506.573 83.375 503.219 83.375C501.573 83.375 499.958 83.1979 498.375 82.8438V75.2812C499.521 75.5521 500.771 75.6875 502.125 75.6875C503.812 75.6875 505.281 75.1667 506.531 74.125C507.802 73.1042 508.792 71.5521 509.5 69.4688L510.062 67.75L496.188 33.0625ZM573.438 68.625C569.333 68.625 566.115 67.1354 563.781 64.1562H563.281C563.615 67.0729 563.781 68.7604 563.781 69.2188V83.375H554.25V33.0625H562L563.344 37.5938H563.781C566.01 34.1354 569.312 32.4062 573.688 32.4062C577.812 32.4062 581.042 34 583.375 37.1875C585.708 40.375 586.875 44.8021 586.875 50.4688C586.875 54.1979 586.323 57.4375 585.219 60.1875C584.135 62.9375 582.583 65.0312 580.562 66.4688C578.542 67.9062 576.167 68.625 573.438 68.625ZM570.625 40.0312C568.271 40.0312 566.552 40.7604 565.469 42.2188C564.385 43.6562 563.823 46.0417 563.781 49.375V50.4062C563.781 54.1562 564.333 56.8438 565.438 58.4688C566.562 60.0938 568.333 60.9062 570.75 60.9062C575.021 60.9062 577.156 57.3854 577.156 50.3438C577.156 46.9062 576.625 44.3333 575.562 42.625C574.521 40.8958 572.875 40.0312 570.625 40.0312ZM614.25 32.4062C615.542 32.4062 616.615 32.5 617.469 32.6875L616.75 41.625C615.979 41.4167 615.042 41.3125 613.938 41.3125C610.896 41.3125 608.521 42.0938 606.812 43.6562C605.125 45.2188 604.281 47.4062 604.281 50.2188V68H594.75V33.0625H601.969L603.375 38.9375H603.844C604.927 36.9792 606.385 35.4062 608.219 34.2188C610.073 33.0104 612.083 32.4062 614.25 32.4062ZM631.406 50.4688C631.406 53.9271 631.969 56.5417 633.094 58.3125C634.24 60.0833 636.094 60.9688 638.656 60.9688C641.198 60.9688 643.021 60.0938 644.125 58.3438C645.25 56.5729 645.812 53.9479 645.812 50.4688C645.812 47.0104 645.25 44.4167 644.125 42.6875C643 40.9583 641.156 40.0938 638.594 40.0938C636.052 40.0938 634.219 40.9583 633.094 42.6875C631.969 44.3958 631.406 46.9896 631.406 50.4688ZM655.562 50.4688C655.562 56.1562 654.062 60.6042 651.062 63.8125C648.062 67.0208 643.885 68.625 638.531 68.625C635.177 68.625 632.219 67.8958 629.656 66.4375C627.094 64.9583 625.125 62.8438 623.75 60.0938C622.375 57.3438 621.688 54.1354 621.688 50.4688C621.688 44.7604 623.177 40.3229 626.156 37.1562C629.135 33.9896 633.323 32.4062 638.719 32.4062C642.073 32.4062 645.031 33.1354 647.594 34.5938C650.156 36.0521 652.125 38.1458 653.5 40.875C654.875 43.6042 655.562 46.8021 655.562 50.4688ZM694.719 68H685.188V47.5938C685.188 45.0729 684.76 43.1875 683.906 41.9375C683.073 40.6667 681.75 40.0312 679.938 40.0312C677.5 40.0312 675.729 40.9271 674.625 42.7188C673.521 44.5104 672.969 47.4583 672.969 51.5625V68H663.438V33.0625H670.719L672 37.5312H672.531C673.469 35.9271 674.823 34.6771 676.594 33.7812C678.365 32.8646 680.396 32.4062 682.688 32.4062C687.917 32.4062 691.458 34.1146 693.312 37.5312H694.156C695.094 35.9062 696.469 34.6458 698.281 33.75C700.115 32.8542 702.177 32.4062 704.469 32.4062C708.427 32.4062 711.417 33.4271 713.438 35.4688C715.479 37.4896 716.5 40.7396 716.5 45.2188V68H706.938V47.5938C706.938 45.0729 706.51 43.1875 705.656 41.9375C704.823 40.6667 703.5 40.0312 701.688 40.0312C699.354 40.0312 697.604 40.8646 696.438 42.5312C695.292 44.1979 694.719 46.8438 694.719 50.4688V68ZM733.906 50.4688C733.906 53.9271 734.469 56.5417 735.594 58.3125C736.74 60.0833 738.594 60.9688 741.156 60.9688C743.698 60.9688 745.521 60.0938 746.625 58.3438C747.75 56.5729 748.312 53.9479 748.312 50.4688C748.312 47.0104 747.75 44.4167 746.625 42.6875C745.5 40.9583 743.656 40.0938 741.094 40.0938C738.552 40.0938 736.719 40.9583 735.594 42.6875C734.469 44.3958 733.906 46.9896 733.906 50.4688ZM758.062 50.4688C758.062 56.1562 756.562 60.6042 753.562 63.8125C750.562 67.0208 746.385 68.625 741.031 68.625C737.677 68.625 734.719 67.8958 732.156 66.4375C729.594 64.9583 727.625 62.8438 726.25 60.0938C724.875 57.3438 724.188 54.1354 724.188 50.4688C724.188 44.7604 725.677 40.3229 728.656 37.1562C731.635 33.9896 735.823 32.4062 741.219 32.4062C744.573 32.4062 747.531 33.1354 750.094 34.5938C752.656 36.0521 754.625 38.1458 756 40.875C757.375 43.6042 758.062 46.8021 758.062 50.4688ZM774.25 68L760.938 33.0625H770.906L777.656 52.9688C778.406 55.4896 778.875 57.875 779.062 60.125H779.25C779.354 58.125 779.823 55.7396 780.656 52.9688L787.375 33.0625H797.344L784.031 68H774.25ZM816.844 39.1875C814.823 39.1875 813.24 39.8333 812.094 41.125C810.948 42.3958 810.292 44.2083 810.125 46.5625H823.5C823.458 44.2083 822.844 42.3958 821.656 41.125C820.469 39.8333 818.865 39.1875 816.844 39.1875ZM818.188 68.625C812.562 68.625 808.167 67.0729 805 63.9688C801.833 60.8646 800.25 56.4688 800.25 50.7812C800.25 44.9271 801.708 40.4062 804.625 37.2188C807.562 34.0104 811.615 32.4062 816.781 32.4062C821.719 32.4062 825.562 33.8125 828.312 36.625C831.062 39.4375 832.438 43.3229 832.438 48.2812V52.9062H809.906C810.01 55.6146 810.812 57.7292 812.312 59.25C813.812 60.7708 815.917 61.5312 818.625 61.5312C820.729 61.5312 822.719 61.3125 824.594 60.875C826.469 60.4375 828.427 59.7396 830.469 58.7812V66.1562C828.802 66.9896 827.021 67.6042 825.125 68C823.229 68.4167 820.917 68.625 818.188 68.625ZM871.469 68H861.938V47.5938C861.938 45.0729 861.51 43.1875 860.656 41.9375C859.823 40.6667 858.5 40.0312 856.688 40.0312C854.25 40.0312 852.479 40.9271 851.375 42.7188C850.271 44.5104 849.719 47.4583 849.719 51.5625V68H840.188V33.0625H847.469L848.75 37.5312H849.281C850.219 35.9271 851.573 34.6771 853.344 33.7812C855.115 32.8646 857.146 32.4062 859.438 32.4062C864.667 32.4062 868.208 34.1146 870.062 37.5312H870.906C871.844 35.9062 873.219 34.6458 875.031 33.75C876.865 32.8542 878.927 32.4062 881.219 32.4062C885.177 32.4062 888.167 33.4271 890.188 35.4688C892.229 37.4896 893.25 40.7396 893.25 45.2188V68H883.688V47.5938C883.688 45.0729 883.26 43.1875 882.406 41.9375C881.573 40.6667 880.25 40.0312 878.438 40.0312C876.104 40.0312 874.354 40.8646 873.188 42.5312C872.042 44.1979 871.469 46.8438 871.469 50.4688V68ZM910.656 50.4688C910.656 53.9271 911.219 56.5417 912.344 58.3125C913.49 60.0833 915.344 60.9688 917.906 60.9688C920.448 60.9688 922.271 60.0938 923.375 58.3438C924.5 56.5729 925.062 53.9479 925.062 50.4688C925.062 47.0104 924.5 44.4167 923.375 42.6875C922.25 40.9583 920.406 40.0938 917.844 40.0938C915.302 40.0938 913.469 40.9583 912.344 42.6875C911.219 44.3958 910.656 46.9896 910.656 50.4688ZM934.812 50.4688C934.812 56.1562 933.312 60.6042 930.312 63.8125C927.312 67.0208 923.135 68.625 917.781 68.625C914.427 68.625 911.469 67.8958 908.906 66.4375C906.344 64.9583 904.375 62.8438 903 60.0938C901.625 57.3438 900.938 54.1354 900.938 50.4688C900.938 44.7604 902.427 40.3229 905.406 37.1562C908.385 33.9896 912.573 32.4062 917.969 32.4062C921.323 32.4062 924.281 33.1354 926.844 34.5938C929.406 36.0521 931.375 38.1458 932.75 40.875C934.125 43.6042 934.812 46.8021 934.812 50.4688ZM967.062 57.625C967.062 61.2083 965.812 63.9375 963.312 65.8125C960.833 67.6875 957.115 68.625 952.156 68.625C949.615 68.625 947.448 68.4479 945.656 68.0938C943.865 67.7604 942.188 67.2604 940.625 66.5938V58.7188C942.396 59.5521 944.385 60.25 946.594 60.8125C948.823 61.375 950.781 61.6562 952.469 61.6562C955.927 61.6562 957.656 60.6562 957.656 58.6562C957.656 57.9062 957.427 57.3021 956.969 56.8438C956.51 56.3646 955.719 55.8333 954.594 55.25C953.469 54.6458 951.969 53.9479 950.094 53.1562C947.406 52.0312 945.427 50.9896 944.156 50.0312C942.906 49.0729 941.99 47.9792 941.406 46.75C940.844 45.5 940.562 43.9688 940.562 42.1562C940.562 39.0521 941.76 36.6562 944.156 34.9688C946.573 33.2604 949.99 32.4062 954.406 32.4062C958.615 32.4062 962.708 33.3229 966.688 35.1562L963.812 42.0312C962.062 41.2812 960.427 40.6667 958.906 40.1875C957.385 39.7083 955.833 39.4688 954.25 39.4688C951.438 39.4688 950.031 40.2292 950.031 41.75C950.031 42.6042 950.479 43.3438 951.375 43.9688C952.292 44.5938 954.281 45.5208 957.344 46.75C960.073 47.8542 962.073 48.8854 963.344 49.8438C964.615 50.8021 965.552 51.9062 966.156 53.1562C966.76 54.4062 967.062 55.8958 967.062 57.625ZM18.5938 111.031C18.5938 107.927 20.3229 106.375 23.7812 106.375C27.2396 106.375 28.9688 107.927 28.9688 111.031C28.9688 112.51 28.5312 113.667 27.6562 114.5C26.8021 115.312 25.5104 115.719 23.7812 115.719C20.3229 115.719 18.5938 114.156 18.5938 111.031ZM28.5312 155H19V120.062H28.5312V155ZM70.8125 155H61.2812V134.594C61.2812 132.073 60.8333 130.188 59.9375 128.938C59.0417 127.667 57.6146 127.031 55.6562 127.031C52.9896 127.031 51.0625 127.927 49.875 129.719C48.6875 131.49 48.0938 134.438 48.0938 138.562V155H38.5625V120.062H45.8438L47.125 124.531H47.6562C48.7188 122.844 50.1771 121.573 52.0312 120.719C53.9062 119.844 56.0312 119.406 58.4062 119.406C62.4688 119.406 65.5521 120.51 67.6562 122.719C69.7604 124.906 70.8125 128.073 70.8125 132.219V155ZM88.9375 155L75.625 120.062H85.5938L92.3438 139.969C93.0938 142.49 93.5625 144.875 93.75 147.125H93.9375C94.0417 145.125 94.5104 142.74 95.3438 139.969L102.062 120.062H112.031L98.7188 155H88.9375ZM131.531 126.188C129.51 126.188 127.927 126.833 126.781 128.125C125.635 129.396 124.979 131.208 124.812 133.562H138.188C138.146 131.208 137.531 129.396 136.344 128.125C135.156 126.833 133.552 126.188 131.531 126.188ZM132.875 155.625C127.25 155.625 122.854 154.073 119.688 150.969C116.521 147.865 114.938 143.469 114.938 137.781C114.938 131.927 116.396 127.406 119.312 124.219C122.25 121.01 126.302 119.406 131.469 119.406C136.406 119.406 140.25 120.812 143 123.625C145.75 126.438 147.125 130.323 147.125 135.281V139.906H124.594C124.698 142.615 125.5 144.729 127 146.25C128.5 147.771 130.604 148.531 133.312 148.531C135.417 148.531 137.406 148.312 139.281 147.875C141.156 147.438 143.115 146.74 145.156 145.781V153.156C143.49 153.99 141.708 154.604 139.812 155C137.917 155.417 135.604 155.625 132.875 155.625ZM179.25 144.625C179.25 148.208 178 150.938 175.5 152.812C173.021 154.688 169.302 155.625 164.344 155.625C161.802 155.625 159.635 155.448 157.844 155.094C156.052 154.76 154.375 154.26 152.812 153.594V145.719C154.583 146.552 156.573 147.25 158.781 147.812C161.01 148.375 162.969 148.656 164.656 148.656C168.115 148.656 169.844 147.656 169.844 145.656C169.844 144.906 169.615 144.302 169.156 143.844C168.698 143.365 167.906 142.833 166.781 142.25C165.656 141.646 164.156 140.948 162.281 140.156C159.594 139.031 157.615 137.99 156.344 137.031C155.094 136.073 154.177 134.979 153.594 133.75C153.031 132.5 152.75 130.969 152.75 129.156C152.75 126.052 153.948 123.656 156.344 121.969C158.76 120.26 162.177 119.406 166.594 119.406C170.802 119.406 174.896 120.323 178.875 122.156L176 129.031C174.25 128.281 172.615 127.667 171.094 127.188C169.573 126.708 168.021 126.469 166.438 126.469C163.625 126.469 162.219 127.229 162.219 128.75C162.219 129.604 162.667 130.344 163.562 130.969C164.479 131.594 166.469 132.521 169.531 133.75C172.26 134.854 174.26 135.885 175.531 136.844C176.802 137.802 177.74 138.906 178.344 140.156C178.948 141.406 179.25 142.896 179.25 144.625ZM201.406 148.031C203.073 148.031 205.073 147.667 207.406 146.938V154.031C205.031 155.094 202.115 155.625 198.656 155.625C194.844 155.625 192.062 154.667 190.312 152.75C188.583 150.812 187.719 147.917 187.719 144.062V127.219H183.156V123.188L188.406 120L191.156 112.625H197.25V120.062H207.031V127.219H197.25V144.062C197.25 145.417 197.625 146.417 198.375 147.062C199.146 147.708 200.156 148.031 201.406 148.031ZM214.094 111.031C214.094 107.927 215.823 106.375 219.281 106.375C222.74 106.375 224.469 107.927 224.469 111.031C224.469 112.51 224.031 113.667 223.156 114.5C222.302 115.312 221.01 115.719 219.281 115.719C215.823 115.719 214.094 114.156 214.094 111.031ZM224.031 155H214.5V120.062H224.031V155ZM264.469 120.062V124.906L259 126.312C260 127.875 260.5 129.625 260.5 131.562C260.5 135.312 259.188 138.24 256.562 140.344C253.958 142.427 250.333 143.469 245.688 143.469L243.969 143.375L242.562 143.219C241.583 143.969 241.094 144.802 241.094 145.719C241.094 147.094 242.844 147.781 246.344 147.781H252.281C256.115 147.781 259.031 148.604 261.031 150.25C263.052 151.896 264.062 154.312 264.062 157.5C264.062 161.583 262.354 164.75 258.938 167C255.542 169.25 250.656 170.375 244.281 170.375C239.406 170.375 235.677 169.521 233.094 167.812C230.531 166.125 229.25 163.75 229.25 160.688C229.25 158.583 229.906 156.823 231.219 155.406C232.531 153.99 234.458 152.979 237 152.375C236.021 151.958 235.167 151.281 234.438 150.344C233.708 149.385 233.344 148.375 233.344 147.312C233.344 145.979 233.729 144.875 234.5 144C235.271 143.104 236.385 142.229 237.844 141.375C236.01 140.583 234.552 139.312 233.469 137.562C232.406 135.812 231.875 133.75 231.875 131.375C231.875 127.562 233.115 124.615 235.594 122.531C238.073 120.448 241.615 119.406 246.219 119.406C247.198 119.406 248.354 119.5 249.688 119.688C251.042 119.854 251.906 119.979 252.281 120.062H264.469ZM237.5 159.938C237.5 161.25 238.125 162.281 239.375 163.031C240.646 163.781 242.417 164.156 244.688 164.156C248.104 164.156 250.781 163.688 252.719 162.75C254.656 161.812 255.625 160.531 255.625 158.906C255.625 157.594 255.052 156.688 253.906 156.188C252.76 155.688 250.99 155.438 248.594 155.438H243.656C241.906 155.438 240.438 155.844 239.25 156.656C238.083 157.49 237.5 158.583 237.5 159.938ZM240.969 131.5C240.969 133.396 241.396 134.896 242.25 136C243.125 137.104 244.448 137.656 246.219 137.656C248.01 137.656 249.323 137.104 250.156 136C250.99 134.896 251.406 133.396 251.406 131.5C251.406 127.292 249.677 125.188 246.219 125.188C242.719 125.188 240.969 127.292 240.969 131.5ZM292.438 155L290.594 150.25H290.344C288.74 152.271 287.083 153.677 285.375 154.469C283.688 155.24 281.479 155.625 278.75 155.625C275.396 155.625 272.75 154.667 270.812 152.75C268.896 150.833 267.938 148.104 267.938 144.562C267.938 140.854 269.229 138.125 271.812 136.375C274.417 134.604 278.333 133.625 283.562 133.438L289.625 133.25V131.719C289.625 128.177 287.812 126.406 284.188 126.406C281.396 126.406 278.115 127.25 274.344 128.938L271.188 122.5C275.208 120.396 279.667 119.344 284.562 119.344C289.25 119.344 292.844 120.365 295.344 122.406C297.844 124.448 299.094 127.552 299.094 131.719V155H292.438ZM289.625 138.812L285.938 138.938C283.167 139.021 281.104 139.521 279.75 140.438C278.396 141.354 277.719 142.75 277.719 144.625C277.719 147.312 279.26 148.656 282.344 148.656C284.552 148.656 286.312 148.021 287.625 146.75C288.958 145.479 289.625 143.792 289.625 141.688V138.812ZM323.125 155.625C312.25 155.625 306.812 149.656 306.812 137.719C306.812 131.781 308.292 127.25 311.25 124.125C314.208 120.979 318.448 119.406 323.969 119.406C328.01 119.406 331.635 120.198 334.844 121.781L332.031 129.156C330.531 128.552 329.135 128.062 327.844 127.688C326.552 127.292 325.26 127.094 323.969 127.094C319.01 127.094 316.531 130.615 316.531 137.656C316.531 144.49 319.01 147.906 323.969 147.906C325.802 147.906 327.5 147.667 329.062 147.188C330.625 146.688 332.188 145.917 333.75 144.875V153.031C332.208 154.01 330.646 154.688 329.062 155.062C327.5 155.438 325.521 155.625 323.125 155.625ZM341.469 111.031C341.469 107.927 343.198 106.375 346.656 106.375C350.115 106.375 351.844 107.927 351.844 111.031C351.844 112.51 351.406 113.667 350.531 114.5C349.677 115.312 348.385 115.719 346.656 115.719C343.198 115.719 341.469 114.156 341.469 111.031ZM351.406 155H341.875V120.062H351.406V155ZM369.031 137.469C369.031 140.927 369.594 143.542 370.719 145.312C371.865 147.083 373.719 147.969 376.281 147.969C378.823 147.969 380.646 147.094 381.75 145.344C382.875 143.573 383.438 140.948 383.438 137.469C383.438 134.01 382.875 131.417 381.75 129.688C380.625 127.958 378.781 127.094 376.219 127.094C373.677 127.094 371.844 127.958 370.719 129.688C369.594 131.396 369.031 133.99 369.031 137.469ZM393.188 137.469C393.188 143.156 391.688 147.604 388.688 150.812C385.688 154.021 381.51 155.625 376.156 155.625C372.802 155.625 369.844 154.896 367.281 153.438C364.719 151.958 362.75 149.844 361.375 147.094C360 144.344 359.312 141.135 359.312 137.469C359.312 131.76 360.802 127.323 363.781 124.156C366.76 120.99 370.948 119.406 376.344 119.406C379.698 119.406 382.656 120.135 385.219 121.594C387.781 123.052 389.75 125.146 391.125 127.875C392.5 130.604 393.188 133.802 393.188 137.469ZM371.031 116.219V115.375C374.615 111.208 377.062 108.073 378.375 105.969H389.062V106.625C387.979 107.708 386.125 109.323 383.5 111.469C380.896 113.594 378.854 115.177 377.375 116.219H371.031ZM433.312 155H423.781V134.594C423.781 132.073 423.333 130.188 422.438 128.938C421.542 127.667 420.115 127.031 418.156 127.031C415.49 127.031 413.562 127.927 412.375 129.719C411.188 131.49 410.594 134.438 410.594 138.562V155H401.062V120.062H408.344L409.625 124.531H410.156C411.219 122.844 412.677 121.573 414.531 120.719C416.406 119.844 418.531 119.406 420.906 119.406C424.969 119.406 428.052 120.51 430.156 122.719C432.26 124.906 433.312 128.073 433.312 132.219V155ZM452.469 148.281C451.385 152.49 449.552 157.479 446.969 163.25H440.094C441.448 157.708 442.5 152.479 443.25 147.562H452L452.469 148.281ZM477.906 111.031C477.906 107.927 479.635 106.375 483.094 106.375C486.552 106.375 488.281 107.927 488.281 111.031C488.281 112.51 487.844 113.667 486.969 114.5C486.115 115.312 484.823 115.719 483.094 115.719C479.635 115.719 477.906 114.156 477.906 111.031ZM487.844 155H478.312V120.062H487.844V155ZM530.125 155H520.594V134.594C520.594 132.073 520.146 130.188 519.25 128.938C518.354 127.667 516.927 127.031 514.969 127.031C512.302 127.031 510.375 127.927 509.188 129.719C508 131.49 507.406 134.438 507.406 138.562V155H497.875V120.062H505.156L506.438 124.531H506.969C508.031 122.844 509.49 121.573 511.344 120.719C513.219 119.844 515.344 119.406 517.719 119.406C521.781 119.406 524.865 120.51 526.969 122.719C529.073 124.906 530.125 128.073 530.125 132.219V155ZM572.188 155H562.656V134.594C562.656 132.073 562.208 130.188 561.312 128.938C560.417 127.667 558.99 127.031 557.031 127.031C554.365 127.031 552.438 127.927 551.25 129.719C550.062 131.49 549.469 134.438 549.469 138.562V155H539.938V120.062H547.219L548.5 124.531H549.031C550.094 122.844 551.552 121.573 553.406 120.719C555.281 119.844 557.406 119.406 559.781 119.406C563.844 119.406 566.927 120.51 569.031 122.719C571.135 124.906 572.188 128.073 572.188 132.219V155ZM589.594 137.469C589.594 140.927 590.156 143.542 591.281 145.312C592.427 147.083 594.281 147.969 596.844 147.969C599.385 147.969 601.208 147.094 602.312 145.344C603.438 143.573 604 140.948 604 137.469C604 134.01 603.438 131.417 602.312 129.688C601.188 127.958 599.344 127.094 596.781 127.094C594.24 127.094 592.406 127.958 591.281 129.688C590.156 131.396 589.594 133.99 589.594 137.469ZM613.75 137.469C613.75 143.156 612.25 147.604 609.25 150.812C606.25 154.021 602.073 155.625 596.719 155.625C593.365 155.625 590.406 154.896 587.844 153.438C585.281 151.958 583.312 149.844 581.938 147.094C580.562 144.344 579.875 141.135 579.875 137.469C579.875 131.76 581.365 127.323 584.344 124.156C587.323 120.99 591.51 119.406 596.906 119.406C600.26 119.406 603.219 120.135 605.781 121.594C608.344 123.052 610.312 125.146 611.688 127.875C613.062 130.604 613.75 133.802 613.75 137.469ZM629.938 155L616.625 120.062H626.594L633.344 139.969C634.094 142.49 634.562 144.875 634.75 147.125H634.938C635.042 145.125 635.51 142.74 636.344 139.969L643.062 120.062H653.031L639.719 155H629.938ZM680.25 155L678.406 150.25H678.156C676.552 152.271 674.896 153.677 673.188 154.469C671.5 155.24 669.292 155.625 666.562 155.625C663.208 155.625 660.562 154.667 658.625 152.75C656.708 150.833 655.75 148.104 655.75 144.562C655.75 140.854 657.042 138.125 659.625 136.375C662.229 134.604 666.146 133.625 671.375 133.438L677.438 133.25V131.719C677.438 128.177 675.625 126.406 672 126.406C669.208 126.406 665.927 127.25 662.156 128.938L659 122.5C663.021 120.396 667.479 119.344 672.375 119.344C677.062 119.344 680.656 120.365 683.156 122.406C685.656 124.448 686.906 127.552 686.906 131.719V155H680.25ZM677.438 138.812L673.75 138.938C670.979 139.021 668.917 139.521 667.562 140.438C666.208 141.354 665.531 142.75 665.531 144.625C665.531 147.312 667.073 148.656 670.156 148.656C672.365 148.656 674.125 148.021 675.438 146.75C676.771 145.479 677.438 143.792 677.438 141.688V138.812ZM710.938 155.625C700.062 155.625 694.625 149.656 694.625 137.719C694.625 131.781 696.104 127.25 699.062 124.125C702.021 120.979 706.26 119.406 711.781 119.406C715.823 119.406 719.448 120.198 722.656 121.781L719.844 129.156C718.344 128.552 716.948 128.062 715.656 127.688C714.365 127.292 713.073 127.094 711.781 127.094C706.823 127.094 704.344 130.615 704.344 137.656C704.344 144.49 706.823 147.906 711.781 147.906C713.615 147.906 715.312 147.667 716.875 147.188C718.438 146.688 720 145.917 721.562 144.875V153.031C720.021 154.01 718.458 154.688 716.875 155.062C715.312 155.438 713.333 155.625 710.938 155.625ZM729.281 111.031C729.281 107.927 731.01 106.375 734.469 106.375C737.927 106.375 739.656 107.927 739.656 111.031C739.656 112.51 739.219 113.667 738.344 114.5C737.49 115.312 736.198 115.719 734.469 115.719C731.01 115.719 729.281 114.156 729.281 111.031ZM739.219 155H729.688V120.062H739.219V155ZM756.844 137.469C756.844 140.927 757.406 143.542 758.531 145.312C759.677 147.083 761.531 147.969 764.094 147.969C766.635 147.969 768.458 147.094 769.562 145.344C770.688 143.573 771.25 140.948 771.25 137.469C771.25 134.01 770.688 131.417 769.562 129.688C768.438 127.958 766.594 127.094 764.031 127.094C761.49 127.094 759.656 127.958 758.531 129.688C757.406 131.396 756.844 133.99 756.844 137.469ZM781 137.469C781 143.156 779.5 147.604 776.5 150.812C773.5 154.021 769.323 155.625 763.969 155.625C760.615 155.625 757.656 154.896 755.094 153.438C752.531 151.958 750.562 149.844 749.188 147.094C747.812 144.344 747.125 141.135 747.125 137.469C747.125 131.76 748.615 127.323 751.594 124.156C754.573 120.99 758.76 119.406 764.156 119.406C767.51 119.406 770.469 120.135 773.031 121.594C775.594 123.052 777.562 125.146 778.938 127.875C780.312 130.604 781 133.802 781 137.469ZM758.844 116.219V115.375C762.427 111.208 764.875 108.073 766.188 105.969H776.875V106.625C775.792 107.708 773.938 109.323 771.312 111.469C768.708 113.594 766.667 115.177 765.188 116.219H758.844ZM821.125 155H811.594V134.594C811.594 132.073 811.146 130.188 810.25 128.938C809.354 127.667 807.927 127.031 805.969 127.031C803.302 127.031 801.375 127.927 800.188 129.719C799 131.49 798.406 134.438 798.406 138.562V155H788.875V120.062H796.156L797.438 124.531H797.969C799.031 122.844 800.49 121.573 802.344 120.719C804.219 119.844 806.344 119.406 808.719 119.406C812.781 119.406 815.865 120.51 817.969 122.719C820.073 124.906 821.125 128.073 821.125 132.219V155ZM842.562 120.062H853L859.594 139.719C860.156 141.427 860.542 143.448 860.75 145.781H860.938C861.167 143.635 861.615 141.615 862.281 139.719L868.75 120.062H878.969L864.188 159.469C862.833 163.115 860.896 165.844 858.375 167.656C855.875 169.469 852.948 170.375 849.594 170.375C847.948 170.375 846.333 170.198 844.75 169.844V162.281C845.896 162.552 847.146 162.688 848.5 162.688C850.188 162.688 851.656 162.167 852.906 161.125C854.177 160.104 855.167 158.552 855.875 156.469L856.438 154.75L842.562 120.062ZM911.688 155.625C907.583 155.625 904.354 154.031 902 150.844C899.667 147.656 898.5 143.24 898.5 137.594C898.5 131.865 899.688 127.406 902.062 124.219C904.458 121.01 907.75 119.406 911.938 119.406C916.333 119.406 919.688 121.115 922 124.531H922.312C921.833 121.927 921.594 119.604 921.594 117.562V106.375H931.156V155H923.844L922 150.469H921.594C919.427 153.906 916.125 155.625 911.688 155.625ZM915.031 148.031C917.469 148.031 919.25 147.323 920.375 145.906C921.521 144.49 922.146 142.083 922.25 138.688V137.656C922.25 133.906 921.667 131.219 920.5 129.594C919.354 127.969 917.479 127.156 914.875 127.156C912.75 127.156 911.094 128.062 909.906 129.875C908.74 131.667 908.156 134.281 908.156 137.719C908.156 141.156 908.75 143.74 909.938 145.469C911.125 147.177 912.823 148.031 915.031 148.031ZM940.719 111.031C940.719 107.927 942.448 106.375 945.906 106.375C949.365 106.375 951.094 107.927 951.094 111.031C951.094 112.51 950.656 113.667 949.781 114.5C948.927 115.312 947.635 115.719 945.906 115.719C942.448 115.719 940.719 114.156 940.719 111.031ZM950.656 155H941.125V120.062H950.656V155ZM969 155L955.688 120.062H965.656L972.406 139.969C973.156 142.49 973.625 144.875 973.812 147.125H974C974.104 145.125 974.573 142.74 975.406 139.969L982.125 120.062H992.094L978.781 155H969ZM1021.88 155L1020.59 150.531H1020.09C1019.07 152.156 1017.62 153.417 1015.75 154.312C1013.88 155.188 1011.74 155.625 1009.34 155.625C1005.24 155.625 1002.15 154.531 1000.06 152.344C997.979 150.135 996.938 146.969 996.938 142.844V120.062H1006.47V140.469C1006.47 142.99 1006.92 144.885 1007.81 146.156C1008.71 147.406 1010.14 148.031 1012.09 148.031C1014.76 148.031 1016.69 147.146 1017.88 145.375C1019.06 143.583 1019.66 140.625 1019.66 136.5V120.062H1029.19V155H1021.88ZM1048.72 155H1039.19V106.375H1048.72V155ZM1089.16 120.062V124.906L1083.69 126.312C1084.69 127.875 1085.19 129.625 1085.19 131.562C1085.19 135.312 1083.88 138.24 1081.25 140.344C1078.65 142.427 1075.02 143.469 1070.38 143.469L1068.66 143.375L1067.25 143.219C1066.27 143.969 1065.78 144.802 1065.78 145.719C1065.78 147.094 1067.53 147.781 1071.03 147.781H1076.97C1080.8 147.781 1083.72 148.604 1085.72 150.25C1087.74 151.896 1088.75 154.312 1088.75 157.5C1088.75 161.583 1087.04 164.75 1083.62 167C1080.23 169.25 1075.34 170.375 1068.97 170.375C1064.09 170.375 1060.36 169.521 1057.78 167.812C1055.22 166.125 1053.94 163.75 1053.94 160.688C1053.94 158.583 1054.59 156.823 1055.91 155.406C1057.22 153.99 1059.15 152.979 1061.69 152.375C1060.71 151.958 1059.85 151.281 1059.12 150.344C1058.4 149.385 1058.03 148.375 1058.03 147.312C1058.03 145.979 1058.42 144.875 1059.19 144C1059.96 143.104 1061.07 142.229 1062.53 141.375C1060.7 140.583 1059.24 139.312 1058.16 137.562C1057.09 135.812 1056.56 133.75 1056.56 131.375C1056.56 127.562 1057.8 124.615 1060.28 122.531C1062.76 120.448 1066.3 119.406 1070.91 119.406C1071.89 119.406 1073.04 119.5 1074.38 119.688C1075.73 119.854 1076.59 119.979 1076.97 120.062H1089.16ZM1062.19 159.938C1062.19 161.25 1062.81 162.281 1064.06 163.031C1065.33 163.781 1067.1 164.156 1069.38 164.156C1072.79 164.156 1075.47 163.688 1077.41 162.75C1079.34 161.812 1080.31 160.531 1080.31 158.906C1080.31 157.594 1079.74 156.688 1078.59 156.188C1077.45 155.688 1075.68 155.438 1073.28 155.438H1068.34C1066.59 155.438 1065.12 155.844 1063.94 156.656C1062.77 157.49 1062.19 158.583 1062.19 159.938ZM1065.66 131.5C1065.66 133.396 1066.08 134.896 1066.94 136C1067.81 137.104 1069.14 137.656 1070.91 137.656C1072.7 137.656 1074.01 137.104 1074.84 136C1075.68 134.896 1076.09 133.396 1076.09 131.5C1076.09 127.292 1074.36 125.188 1070.91 125.188C1067.41 125.188 1065.66 127.292 1065.66 131.5ZM1117.12 155L1115.28 150.25H1115.03C1113.43 152.271 1111.77 153.677 1110.06 154.469C1108.38 155.24 1106.17 155.625 1103.44 155.625C1100.08 155.625 1097.44 154.667 1095.5 152.75C1093.58 150.833 1092.62 148.104 1092.62 144.562C1092.62 140.854 1093.92 138.125 1096.5 136.375C1099.1 134.604 1103.02 133.625 1108.25 133.438L1114.31 133.25V131.719C1114.31 128.177 1112.5 126.406 1108.88 126.406C1106.08 126.406 1102.8 127.25 1099.03 128.938L1095.88 122.5C1099.9 120.396 1104.35 119.344 1109.25 119.344C1113.94 119.344 1117.53 120.365 1120.03 122.406C1122.53 124.448 1123.78 127.552 1123.78 131.719V155H1117.12ZM1114.31 138.812L1110.62 138.938C1107.85 139.021 1105.79 139.521 1104.44 140.438C1103.08 141.354 1102.41 142.75 1102.41 144.625C1102.41 147.312 1103.95 148.656 1107.03 148.656C1109.24 148.656 1111 148.021 1112.31 146.75C1113.65 145.479 1114.31 143.792 1114.31 141.688V138.812ZM1147.81 155.625C1136.94 155.625 1131.5 149.656 1131.5 137.719C1131.5 131.781 1132.98 127.25 1135.94 124.125C1138.9 120.979 1143.14 119.406 1148.66 119.406C1152.7 119.406 1156.32 120.198 1159.53 121.781L1156.72 129.156C1155.22 128.552 1153.82 128.062 1152.53 127.688C1151.24 127.292 1149.95 127.094 1148.66 127.094C1143.7 127.094 1141.22 130.615 1141.22 137.656C1141.22 144.49 1143.7 147.906 1148.66 147.906C1150.49 147.906 1152.19 147.667 1153.75 147.188C1155.31 146.688 1156.88 145.917 1158.44 144.875V153.031C1156.9 154.01 1155.33 154.688 1153.75 155.062C1152.19 155.438 1150.21 155.625 1147.81 155.625ZM1166.16 111.031C1166.16 107.927 1167.89 106.375 1171.34 106.375C1174.8 106.375 1176.53 107.927 1176.53 111.031C1176.53 112.51 1176.09 113.667 1175.22 114.5C1174.36 115.312 1173.07 115.719 1171.34 115.719C1167.89 115.719 1166.16 114.156 1166.16 111.031ZM1176.09 155H1166.56V120.062H1176.09V155ZM1193.72 137.469C1193.72 140.927 1194.28 143.542 1195.41 145.312C1196.55 147.083 1198.41 147.969 1200.97 147.969C1203.51 147.969 1205.33 147.094 1206.44 145.344C1207.56 143.573 1208.12 140.948 1208.12 137.469C1208.12 134.01 1207.56 131.417 1206.44 129.688C1205.31 127.958 1203.47 127.094 1200.91 127.094C1198.36 127.094 1196.53 127.958 1195.41 129.688C1194.28 131.396 1193.72 133.99 1193.72 137.469ZM1217.88 137.469C1217.88 143.156 1216.38 147.604 1213.38 150.812C1210.38 154.021 1206.2 155.625 1200.84 155.625C1197.49 155.625 1194.53 154.896 1191.97 153.438C1189.41 151.958 1187.44 149.844 1186.06 147.094C1184.69 144.344 1184 141.135 1184 137.469C1184 131.76 1185.49 127.323 1188.47 124.156C1191.45 120.99 1195.64 119.406 1201.03 119.406C1204.39 119.406 1207.34 120.135 1209.91 121.594C1212.47 123.052 1214.44 125.146 1215.81 127.875C1217.19 130.604 1217.88 133.802 1217.88 137.469ZM1195.72 116.219V115.375C1199.3 111.208 1201.75 108.073 1203.06 105.969H1213.75V106.625C1212.67 107.708 1210.81 109.323 1208.19 111.469C1205.58 113.594 1203.54 115.177 1202.06 116.219H1195.72ZM1258 155H1248.47V134.594C1248.47 132.073 1248.02 130.188 1247.12 128.938C1246.23 127.667 1244.8 127.031 1242.84 127.031C1240.18 127.031 1238.25 127.927 1237.06 129.719C1235.88 131.49 1235.28 134.438 1235.28 138.562V155H1225.75V120.062H1233.03L1234.31 124.531H1234.84C1235.91 122.844 1237.36 121.573 1239.22 120.719C1241.09 119.844 1243.22 119.406 1245.59 119.406C1249.66 119.406 1252.74 120.51 1254.84 122.719C1256.95 124.906 1258 128.073 1258 132.219V155ZM43.375 231.625C43.375 235.208 42.125 237.938 39.625 239.812C37.1458 241.688 33.4271 242.625 28.4688 242.625C25.9271 242.625 23.7604 242.448 21.9688 242.094C20.1771 241.76 18.5 241.26 16.9375 240.594V232.719C18.7083 233.552 20.6979 234.25 22.9062 234.812C25.1354 235.375 27.0938 235.656 28.7812 235.656C32.2396 235.656 33.9688 234.656 33.9688 232.656C33.9688 231.906 33.7396 231.302 33.2812 230.844C32.8229 230.365 32.0312 229.833 30.9062 229.25C29.7812 228.646 28.2812 227.948 26.4062 227.156C23.7188 226.031 21.7396 224.99 20.4688 224.031C19.2188 223.073 18.3021 221.979 17.7188 220.75C17.1562 219.5 16.875 217.969 16.875 216.156C16.875 213.052 18.0729 210.656 20.4688 208.969C22.8854 207.26 26.3021 206.406 30.7188 206.406C34.9271 206.406 39.0208 207.323 43 209.156L40.125 216.031C38.375 215.281 36.7396 214.667 35.2188 214.188C33.6979 213.708 32.1458 213.469 30.5625 213.469C27.75 213.469 26.3438 214.229 26.3438 215.75C26.3438 216.604 26.7917 217.344 27.6875 217.969C28.6042 218.594 30.5938 219.521 33.6562 220.75C36.3854 221.854 38.3854 222.885 39.6562 223.844C40.9271 224.802 41.8646 225.906 42.4688 227.156C43.0729 228.406 43.375 229.896 43.375 231.625ZM58.4062 224.469C58.4062 227.927 58.9688 230.542 60.0938 232.312C61.2396 234.083 63.0938 234.969 65.6562 234.969C68.1979 234.969 70.0208 234.094 71.125 232.344C72.25 230.573 72.8125 227.948 72.8125 224.469C72.8125 221.01 72.25 218.417 71.125 216.688C70 214.958 68.1562 214.094 65.5938 214.094C63.0521 214.094 61.2188 214.958 60.0938 216.688C58.9688 218.396 58.4062 220.99 58.4062 224.469ZM82.5625 224.469C82.5625 230.156 81.0625 234.604 78.0625 237.812C75.0625 241.021 70.8854 242.625 65.5312 242.625C62.1771 242.625 59.2188 241.896 56.6562 240.438C54.0938 238.958 52.125 236.844 50.75 234.094C49.375 231.344 48.6875 228.135 48.6875 224.469C48.6875 218.76 50.1771 214.323 53.1562 211.156C56.1354 207.99 60.3229 206.406 65.7188 206.406C69.0729 206.406 72.0312 207.135 74.5938 208.594C77.1562 210.052 79.125 212.146 80.5 214.875C81.875 217.604 82.5625 220.802 82.5625 224.469ZM109.875 206.406C114 206.406 117.229 208.021 119.562 211.25C121.896 214.458 123.062 218.865 123.062 224.469C123.062 230.24 121.854 234.708 119.438 237.875C117.042 241.042 113.771 242.625 109.625 242.625C105.521 242.625 102.302 241.135 99.9688 238.156H99.3125L97.7188 242H90.4375V193.375H99.9688V204.688C99.9688 206.125 99.8438 208.427 99.5938 211.594H99.9688C102.198 208.135 105.5 206.406 109.875 206.406ZM106.812 214.031C104.458 214.031 102.74 214.76 101.656 216.219C100.573 217.656 100.01 220.042 99.9688 223.375V224.406C99.9688 228.156 100.521 230.844 101.625 232.469C102.75 234.094 104.521 234.906 106.938 234.906C108.896 234.906 110.448 234.01 111.594 232.219C112.76 230.406 113.344 227.781 113.344 224.344C113.344 220.906 112.76 218.333 111.594 216.625C110.427 214.896 108.833 214.031 106.812 214.031ZM150.438 206.406C151.729 206.406 152.802 206.5 153.656 206.688L152.938 215.625C152.167 215.417 151.229 215.312 150.125 215.312C147.083 215.312 144.708 216.094 143 217.656C141.312 219.219 140.469 221.406 140.469 224.219V242H130.938V207.062H138.156L139.562 212.938H140.031C141.115 210.979 142.573 209.406 144.406 208.219C146.26 207.01 148.271 206.406 150.438 206.406ZM174.469 213.188C172.448 213.188 170.865 213.833 169.719 215.125C168.573 216.396 167.917 218.208 167.75 220.562H181.125C181.083 218.208 180.469 216.396 179.281 215.125C178.094 213.833 176.49 213.188 174.469 213.188ZM175.812 242.625C170.188 242.625 165.792 241.073 162.625 237.969C159.458 234.865 157.875 230.469 157.875 224.781C157.875 218.927 159.333 214.406 162.25 211.219C165.188 208.01 169.24 206.406 174.406 206.406C179.344 206.406 183.188 207.812 185.938 210.625C188.688 213.438 190.062 217.323 190.062 222.281V226.906H167.531C167.635 229.615 168.438 231.729 169.938 233.25C171.438 234.771 173.542 235.531 176.25 235.531C178.354 235.531 180.344 235.312 182.219 234.875C184.094 234.438 186.052 233.74 188.094 232.781V240.156C186.427 240.99 184.646 241.604 182.75 242C180.854 242.417 178.542 242.625 175.812 242.625ZM229.156 235.031C230.823 235.031 232.823 234.667 235.156 233.938V241.031C232.781 242.094 229.865 242.625 226.406 242.625C222.594 242.625 219.812 241.667 218.062 239.75C216.333 237.812 215.469 234.917 215.469 231.062V214.219H210.906V210.188L216.156 207L218.906 199.625H225V207.062H234.781V214.219H225V231.062C225 232.417 225.375 233.417 226.125 234.062C226.896 234.708 227.906 235.031 229.156 235.031ZM256.719 213.188C254.698 213.188 253.115 213.833 251.969 215.125C250.823 216.396 250.167 218.208 250 220.562H263.375C263.333 218.208 262.719 216.396 261.531 215.125C260.344 213.833 258.74 213.188 256.719 213.188ZM258.062 242.625C252.438 242.625 248.042 241.073 244.875 237.969C241.708 234.865 240.125 230.469 240.125 224.781C240.125 218.927 241.583 214.406 244.5 211.219C247.438 208.01 251.49 206.406 256.656 206.406C261.594 206.406 265.438 207.812 268.188 210.625C270.938 213.438 272.312 217.323 272.312 222.281V226.906H249.781C249.885 229.615 250.688 231.729 252.188 233.25C253.688 234.771 255.792 235.531 258.5 235.531C260.604 235.531 262.594 235.312 264.469 234.875C266.344 234.438 268.302 233.74 270.344 232.781V240.156C268.677 240.99 266.896 241.604 265 242C263.104 242.417 260.792 242.625 258.062 242.625ZM294.25 242.625C283.375 242.625 277.938 236.656 277.938 224.719C277.938 218.781 279.417 214.25 282.375 211.125C285.333 207.979 289.573 206.406 295.094 206.406C299.135 206.406 302.76 207.198 305.969 208.781L303.156 216.156C301.656 215.552 300.26 215.062 298.969 214.688C297.677 214.292 296.385 214.094 295.094 214.094C290.135 214.094 287.656 217.615 287.656 224.656C287.656 231.49 290.135 234.906 295.094 234.906C296.927 234.906 298.625 234.667 300.188 234.188C301.75 233.688 303.312 232.917 304.875 231.875V240.031C303.333 241.01 301.771 241.688 300.188 242.062C298.625 242.438 296.646 242.625 294.25 242.625ZM345.25 242H335.719V221.594C335.719 219.073 335.271 217.188 334.375 215.938C333.479 214.667 332.052 214.031 330.094 214.031C327.427 214.031 325.5 214.927 324.312 216.719C323.125 218.49 322.531 221.438 322.531 225.562V242H313V207.062H320.281L321.562 211.531H322.094C323.156 209.844 324.615 208.573 326.469 207.719C328.344 206.844 330.469 206.406 332.844 206.406C336.906 206.406 339.99 207.51 342.094 209.719C344.198 211.906 345.25 215.073 345.25 219.219V242ZM362.656 224.469C362.656 227.927 363.219 230.542 364.344 232.312C365.49 234.083 367.344 234.969 369.906 234.969C372.448 234.969 374.271 234.094 375.375 232.344C376.5 230.573 377.062 227.948 377.062 224.469C377.062 221.01 376.5 218.417 375.375 216.688C374.25 214.958 372.406 214.094 369.844 214.094C367.302 214.094 365.469 214.958 364.344 216.688C363.219 218.396 362.656 220.99 362.656 224.469ZM386.812 224.469C386.812 230.156 385.312 234.604 382.312 237.812C379.312 241.021 375.135 242.625 369.781 242.625C366.427 242.625 363.469 241.896 360.906 240.438C358.344 238.958 356.375 236.844 355 234.094C353.625 231.344 352.938 228.135 352.938 224.469C352.938 218.76 354.427 214.323 357.406 211.156C360.385 207.99 364.573 206.406 369.969 206.406C373.323 206.406 376.281 207.135 378.844 208.594C381.406 210.052 383.375 212.146 384.75 214.875C386.125 217.604 386.812 220.802 386.812 224.469ZM404.219 242H394.688V193.375H404.219V242ZM421.844 224.469C421.844 227.927 422.406 230.542 423.531 232.312C424.677 234.083 426.531 234.969 429.094 234.969C431.635 234.969 433.458 234.094 434.562 232.344C435.688 230.573 436.25 227.948 436.25 224.469C436.25 221.01 435.688 218.417 434.562 216.688C433.438 214.958 431.594 214.094 429.031 214.094C426.49 214.094 424.656 214.958 423.531 216.688C422.406 218.396 421.844 220.99 421.844 224.469ZM446 224.469C446 230.156 444.5 234.604 441.5 237.812C438.5 241.021 434.323 242.625 428.969 242.625C425.615 242.625 422.656 241.896 420.094 240.438C417.531 238.958 415.562 236.844 414.188 234.094C412.812 231.344 412.125 228.135 412.125 224.469C412.125 218.76 413.615 214.323 416.594 211.156C419.573 207.99 423.76 206.406 429.156 206.406C432.51 206.406 435.469 207.135 438.031 208.594C440.594 210.052 442.562 212.146 443.938 214.875C445.312 217.604 446 220.802 446 224.469ZM484.281 207.062V211.906L478.812 213.312C479.812 214.875 480.312 216.625 480.312 218.562C480.312 222.312 479 225.24 476.375 227.344C473.771 229.427 470.146 230.469 465.5 230.469L463.781 230.375L462.375 230.219C461.396 230.969 460.906 231.802 460.906 232.719C460.906 234.094 462.656 234.781 466.156 234.781H472.094C475.927 234.781 478.844 235.604 480.844 237.25C482.865 238.896 483.875 241.312 483.875 244.5C483.875 248.583 482.167 251.75 478.75 254C475.354 256.25 470.469 257.375 464.094 257.375C459.219 257.375 455.49 256.521 452.906 254.812C450.344 253.125 449.062 250.75 449.062 247.688C449.062 245.583 449.719 243.823 451.031 242.406C452.344 240.99 454.271 239.979 456.812 239.375C455.833 238.958 454.979 238.281 454.25 237.344C453.521 236.385 453.156 235.375 453.156 234.312C453.156 232.979 453.542 231.875 454.312 231C455.083 230.104 456.198 229.229 457.656 228.375C455.823 227.583 454.365 226.312 453.281 224.562C452.219 222.812 451.688 220.75 451.688 218.375C451.688 214.562 452.927 211.615 455.406 209.531C457.885 207.448 461.427 206.406 466.031 206.406C467.01 206.406 468.167 206.5 469.5 206.688C470.854 206.854 471.719 206.979 472.094 207.062H484.281ZM457.312 246.938C457.312 248.25 457.938 249.281 459.188 250.031C460.458 250.781 462.229 251.156 464.5 251.156C467.917 251.156 470.594 250.688 472.531 249.75C474.469 248.812 475.438 247.531 475.438 245.906C475.438 244.594 474.865 243.688 473.719 243.188C472.573 242.688 470.802 242.438 468.406 242.438H463.469C461.719 242.438 460.25 242.844 459.062 243.656C457.896 244.49 457.312 245.583 457.312 246.938ZM460.781 218.5C460.781 220.396 461.208 221.896 462.062 223C462.938 224.104 464.26 224.656 466.031 224.656C467.823 224.656 469.135 224.104 469.969 223C470.802 221.896 471.219 220.396 471.219 218.5C471.219 214.292 469.49 212.188 466.031 212.188C462.531 212.188 460.781 214.292 460.781 218.5ZM499.594 242H490.062V207.062H499.594V242ZM489.594 203.219V202.375C493.177 198.208 495.625 195.073 496.938 192.969H507.625V193.625C506.542 194.708 504.688 196.323 502.062 198.469C499.458 200.594 497.417 202.177 495.938 203.219H489.594ZM531.812 242L529.969 237.25H529.719C528.115 239.271 526.458 240.677 524.75 241.469C523.062 242.24 520.854 242.625 518.125 242.625C514.771 242.625 512.125 241.667 510.188 239.75C508.271 237.833 507.312 235.104 507.312 231.562C507.312 227.854 508.604 225.125 511.188 223.375C513.792 221.604 517.708 220.625 522.938 220.438L529 220.25V218.719C529 215.177 527.188 213.406 523.562 213.406C520.771 213.406 517.49 214.25 513.719 215.938L510.562 209.5C514.583 207.396 519.042 206.344 523.938 206.344C528.625 206.344 532.219 207.365 534.719 209.406C537.219 211.448 538.469 214.552 538.469 218.719V242H531.812ZM529 225.812L525.312 225.938C522.542 226.021 520.479 226.521 519.125 227.438C517.771 228.354 517.094 229.75 517.094 231.625C517.094 234.312 518.635 235.656 521.719 235.656C523.927 235.656 525.688 235.021 527 233.75C528.333 232.479 529 230.792 529 228.688V225.812ZM576 242.625C571.896 242.625 568.667 241.031 566.312 237.844C563.979 234.656 562.812 230.24 562.812 224.594C562.812 218.865 564 214.406 566.375 211.219C568.771 208.01 572.062 206.406 576.25 206.406C580.646 206.406 584 208.115 586.312 211.531H586.625C586.146 208.927 585.906 206.604 585.906 204.562V193.375H595.469V242H588.156L586.312 237.469H585.906C583.74 240.906 580.438 242.625 576 242.625ZM579.344 235.031C581.781 235.031 583.562 234.323 584.688 232.906C585.833 231.49 586.458 229.083 586.562 225.688V224.656C586.562 220.906 585.979 218.219 584.812 216.594C583.667 214.969 581.792 214.156 579.188 214.156C577.062 214.156 575.406 215.062 574.219 216.875C573.052 218.667 572.469 221.281 572.469 224.719C572.469 228.156 573.062 230.74 574.25 232.469C575.438 234.177 577.135 235.031 579.344 235.031ZM605.031 198.031C605.031 194.927 606.76 193.375 610.219 193.375C613.677 193.375 615.406 194.927 615.406 198.031C615.406 199.51 614.969 200.667 614.094 201.5C613.24 202.312 611.948 202.719 610.219 202.719C606.76 202.719 605.031 201.156 605.031 198.031ZM614.969 242H605.438V207.062H614.969V242ZM655.406 207.062V211.906L649.938 213.312C650.938 214.875 651.438 216.625 651.438 218.562C651.438 222.312 650.125 225.24 647.5 227.344C644.896 229.427 641.271 230.469 636.625 230.469L634.906 230.375L633.5 230.219C632.521 230.969 632.031 231.802 632.031 232.719C632.031 234.094 633.781 234.781 637.281 234.781H643.219C647.052 234.781 649.969 235.604 651.969 237.25C653.99 238.896 655 241.312 655 244.5C655 248.583 653.292 251.75 649.875 254C646.479 256.25 641.594 257.375 635.219 257.375C630.344 257.375 626.615 256.521 624.031 254.812C621.469 253.125 620.188 250.75 620.188 247.688C620.188 245.583 620.844 243.823 622.156 242.406C623.469 240.99 625.396 239.979 627.938 239.375C626.958 238.958 626.104 238.281 625.375 237.344C624.646 236.385 624.281 235.375 624.281 234.312C624.281 232.979 624.667 231.875 625.438 231C626.208 230.104 627.323 229.229 628.781 228.375C626.948 227.583 625.49 226.312 624.406 224.562C623.344 222.812 622.812 220.75 622.812 218.375C622.812 214.562 624.052 211.615 626.531 209.531C629.01 207.448 632.552 206.406 637.156 206.406C638.135 206.406 639.292 206.5 640.625 206.688C641.979 206.854 642.844 206.979 643.219 207.062H655.406ZM628.438 246.938C628.438 248.25 629.062 249.281 630.312 250.031C631.583 250.781 633.354 251.156 635.625 251.156C639.042 251.156 641.719 250.688 643.656 249.75C645.594 248.812 646.562 247.531 646.562 245.906C646.562 244.594 645.99 243.688 644.844 243.188C643.698 242.688 641.927 242.438 639.531 242.438H634.594C632.844 242.438 631.375 242.844 630.188 243.656C629.021 244.49 628.438 245.583 628.438 246.938ZM631.906 218.5C631.906 220.396 632.333 221.896 633.188 223C634.062 224.104 635.385 224.656 637.156 224.656C638.948 224.656 640.26 224.104 641.094 223C641.927 221.896 642.344 220.396 642.344 218.5C642.344 214.292 640.615 212.188 637.156 212.188C633.656 212.188 631.906 214.292 631.906 218.5ZM660.781 198.031C660.781 194.927 662.51 193.375 665.969 193.375C669.427 193.375 671.156 194.927 671.156 198.031C671.156 199.51 670.719 200.667 669.844 201.5C668.99 202.312 667.698 202.719 665.969 202.719C662.51 202.719 660.781 201.156 660.781 198.031ZM670.719 242H661.188V207.062H670.719V242ZM695.469 235.031C697.135 235.031 699.135 234.667 701.469 233.938V241.031C699.094 242.094 696.177 242.625 692.719 242.625C688.906 242.625 686.125 241.667 684.375 239.75C682.646 237.812 681.781 234.917 681.781 231.062V214.219H677.219V210.188L682.469 207L685.219 199.625H691.312V207.062H701.094V214.219H691.312V231.062C691.312 232.417 691.688 233.417 692.438 234.062C693.208 234.708 694.219 235.031 695.469 235.031ZM730.75 242L728.906 237.25H728.656C727.052 239.271 725.396 240.677 723.688 241.469C722 242.24 719.792 242.625 717.062 242.625C713.708 242.625 711.062 241.667 709.125 239.75C707.208 237.833 706.25 235.104 706.25 231.562C706.25 227.854 707.542 225.125 710.125 223.375C712.729 221.604 716.646 220.625 721.875 220.438L727.938 220.25V218.719C727.938 215.177 726.125 213.406 722.5 213.406C719.708 213.406 716.427 214.25 712.656 215.938L709.5 209.5C713.521 207.396 717.979 206.344 722.875 206.344C727.562 206.344 731.156 207.365 733.656 209.406C736.156 211.448 737.406 214.552 737.406 218.719V242H730.75ZM727.938 225.812L724.25 225.938C721.479 226.021 719.417 226.521 718.062 227.438C716.708 228.354 716.031 229.75 716.031 231.625C716.031 234.312 717.573 235.656 720.656 235.656C722.865 235.656 724.625 235.021 725.938 233.75C727.271 232.479 727.938 230.792 727.938 228.688V225.812ZM756.781 242H747.25V193.375H756.781V242ZM778.438 207.062H788.875L795.469 226.719C796.031 228.427 796.417 230.448 796.625 232.781H796.812C797.042 230.635 797.49 228.615 798.156 226.719L804.625 207.062H814.844L800.062 246.469C798.708 250.115 796.771 252.844 794.25 254.656C791.75 256.469 788.823 257.375 785.469 257.375C783.823 257.375 782.208 257.198 780.625 256.844V249.281C781.771 249.552 783.021 249.688 784.375 249.688C786.062 249.688 787.531 249.167 788.781 248.125C790.052 247.104 791.042 245.552 791.75 243.469L792.312 241.75L778.438 207.062ZM858.688 242L856.844 237.25H856.594C854.99 239.271 853.333 240.677 851.625 241.469C849.938 242.24 847.729 242.625 845 242.625C841.646 242.625 839 241.667 837.062 239.75C835.146 237.833 834.188 235.104 834.188 231.562C834.188 227.854 835.479 225.125 838.062 223.375C840.667 221.604 844.583 220.625 849.812 220.438L855.875 220.25V218.719C855.875 215.177 854.062 213.406 850.438 213.406C847.646 213.406 844.365 214.25 840.594 215.938L837.438 209.5C841.458 207.396 845.917 206.344 850.812 206.344C855.5 206.344 859.094 207.365 861.594 209.406C864.094 211.448 865.344 214.552 865.344 218.719V242H858.688ZM855.875 225.812L852.188 225.938C849.417 226.021 847.354 226.521 846 227.438C844.646 228.354 843.969 229.75 843.969 231.625C843.969 234.312 845.51 235.656 848.594 235.656C850.802 235.656 852.562 235.021 853.875 233.75C855.208 232.479 855.875 230.792 855.875 228.688V225.812ZM894.375 242.625C890.271 242.625 887.052 241.135 884.719 238.156H884.219C884.552 241.073 884.719 242.76 884.719 243.219V257.375H875.188V207.062H882.938L884.281 211.594H884.719C886.948 208.135 890.25 206.406 894.625 206.406C898.75 206.406 901.979 208 904.312 211.188C906.646 214.375 907.812 218.802 907.812 224.469C907.812 228.198 907.26 231.438 906.156 234.188C905.073 236.938 903.521 239.031 901.5 240.469C899.479 241.906 897.104 242.625 894.375 242.625ZM891.562 214.031C889.208 214.031 887.49 214.76 886.406 216.219C885.323 217.656 884.76 220.042 884.719 223.375V224.406C884.719 228.156 885.271 230.844 886.375 232.469C887.5 234.094 889.271 234.906 891.688 234.906C895.958 234.906 898.094 231.385 898.094 224.344C898.094 220.906 897.562 218.333 896.5 216.625C895.458 214.896 893.812 214.031 891.562 214.031ZM935.188 206.406C936.479 206.406 937.552 206.5 938.406 206.688L937.688 215.625C936.917 215.417 935.979 215.312 934.875 215.312C931.833 215.312 929.458 216.094 927.75 217.656C926.062 219.219 925.219 221.406 925.219 224.219V242H915.688V207.062H922.906L924.312 212.938H924.781C925.865 210.979 927.323 209.406 929.156 208.219C931.01 207.01 933.021 206.406 935.188 206.406ZM959.219 213.188C957.198 213.188 955.615 213.833 954.469 215.125C953.323 216.396 952.667 218.208 952.5 220.562H965.875C965.833 218.208 965.219 216.396 964.031 215.125C962.844 213.833 961.24 213.188 959.219 213.188ZM960.562 242.625C954.938 242.625 950.542 241.073 947.375 237.969C944.208 234.865 942.625 230.469 942.625 224.781C942.625 218.927 944.083 214.406 947 211.219C949.938 208.01 953.99 206.406 959.156 206.406C964.094 206.406 967.938 207.812 970.688 210.625C973.438 213.438 974.812 217.323 974.812 222.281V226.906H952.281C952.385 229.615 953.188 231.729 954.688 233.25C956.188 234.771 958.292 235.531 961 235.531C963.104 235.531 965.094 235.312 966.969 234.875C968.844 234.438 970.802 233.74 972.844 232.781V240.156C971.177 240.99 969.396 241.604 967.5 242C965.604 242.417 963.292 242.625 960.562 242.625ZM1014.81 242H1005.28V221.594C1005.28 219.073 1004.83 217.188 1003.94 215.938C1003.04 214.667 1001.61 214.031 999.656 214.031C996.99 214.031 995.062 214.927 993.875 216.719C992.688 218.49 992.094 221.438 992.094 225.562V242H982.562V207.062H989.844L991.125 211.531H991.656C992.719 209.844 994.177 208.573 996.031 207.719C997.906 206.844 1000.03 206.406 1002.41 206.406C1006.47 206.406 1009.55 207.51 1011.66 209.719C1013.76 211.906 1014.81 215.073 1014.81 219.219V242ZM1035.69 242.625C1031.58 242.625 1028.35 241.031 1026 237.844C1023.67 234.656 1022.5 230.24 1022.5 224.594C1022.5 218.865 1023.69 214.406 1026.06 211.219C1028.46 208.01 1031.75 206.406 1035.94 206.406C1040.33 206.406 1043.69 208.115 1046 211.531H1046.31C1045.83 208.927 1045.59 206.604 1045.59 204.562V193.375H1055.16V242H1047.84L1046 237.469H1045.59C1043.43 240.906 1040.12 242.625 1035.69 242.625ZM1039.03 235.031C1041.47 235.031 1043.25 234.323 1044.38 232.906C1045.52 231.49 1046.15 229.083 1046.25 225.688V224.656C1046.25 220.906 1045.67 218.219 1044.5 216.594C1043.35 214.969 1041.48 214.156 1038.88 214.156C1036.75 214.156 1035.09 215.062 1033.91 216.875C1032.74 218.667 1032.16 221.281 1032.16 224.719C1032.16 228.156 1032.75 230.74 1033.94 232.469C1035.12 234.177 1036.82 235.031 1039.03 235.031ZM1064.72 198.031C1064.72 194.927 1066.45 193.375 1069.91 193.375C1073.36 193.375 1075.09 194.927 1075.09 198.031C1075.09 199.51 1074.66 200.667 1073.78 201.5C1072.93 202.312 1071.64 202.719 1069.91 202.719C1066.45 202.719 1064.72 201.156 1064.72 198.031ZM1074.66 242H1065.12V207.062H1074.66V242ZM1109 242H1081.41V236.375L1097.59 214.344H1082.38V207.062H1108.44V213.25L1092.69 234.719H1109V242ZM1138.12 242L1136.28 237.25H1136.03C1134.43 239.271 1132.77 240.677 1131.06 241.469C1129.38 242.24 1127.17 242.625 1124.44 242.625C1121.08 242.625 1118.44 241.667 1116.5 239.75C1114.58 237.833 1113.62 235.104 1113.62 231.562C1113.62 227.854 1114.92 225.125 1117.5 223.375C1120.1 221.604 1124.02 220.625 1129.25 220.438L1135.31 220.25V218.719C1135.31 215.177 1133.5 213.406 1129.88 213.406C1127.08 213.406 1123.8 214.25 1120.03 215.938L1116.88 209.5C1120.9 207.396 1125.35 206.344 1130.25 206.344C1134.94 206.344 1138.53 207.365 1141.03 209.406C1143.53 211.448 1144.78 214.552 1144.78 218.719V242H1138.12ZM1135.31 225.812L1131.62 225.938C1128.85 226.021 1126.79 226.521 1125.44 227.438C1124.08 228.354 1123.41 229.75 1123.41 231.625C1123.41 234.312 1124.95 235.656 1128.03 235.656C1130.24 235.656 1132 235.021 1133.31 233.75C1134.65 232.479 1135.31 230.792 1135.31 228.688V225.812ZM1151.81 257.375C1149.38 257.375 1147.28 257.115 1145.53 256.594V249.094C1146.99 249.49 1148.48 249.688 1150 249.688C1151.6 249.688 1152.77 249.24 1153.5 248.344C1154.25 247.448 1154.62 246.125 1154.62 244.375V207.062H1164.16V245.781C1164.16 249.49 1163.08 252.344 1160.94 254.344C1158.79 256.365 1155.75 257.375 1151.81 257.375ZM1154.22 198.031C1154.22 194.927 1155.95 193.375 1159.41 193.375C1162.86 193.375 1164.59 194.927 1164.59 198.031C1164.59 199.51 1164.16 200.667 1163.28 201.5C1162.43 202.312 1161.14 202.719 1159.41 202.719C1155.95 202.719 1154.22 201.156 1154.22 198.031ZM1188.66 213.188C1186.64 213.188 1185.05 213.833 1183.91 215.125C1182.76 216.396 1182.1 218.208 1181.94 220.562H1195.31C1195.27 218.208 1194.66 216.396 1193.47 215.125C1192.28 213.833 1190.68 213.188 1188.66 213.188ZM1190 242.625C1184.38 242.625 1179.98 241.073 1176.81 237.969C1173.65 234.865 1172.06 230.469 1172.06 224.781C1172.06 218.927 1173.52 214.406 1176.44 211.219C1179.38 208.01 1183.43 206.406 1188.59 206.406C1193.53 206.406 1197.38 207.812 1200.12 210.625C1202.88 213.438 1204.25 217.323 1204.25 222.281V226.906H1181.72C1181.82 229.615 1182.62 231.729 1184.12 233.25C1185.62 234.771 1187.73 235.531 1190.44 235.531C1192.54 235.531 1194.53 235.312 1196.41 234.875C1198.28 234.438 1200.24 233.74 1202.28 232.781V240.156C1200.61 240.99 1198.83 241.604 1196.94 242C1195.04 242.417 1192.73 242.625 1190 242.625ZM1221.34 235.281C1220.26 239.49 1218.43 244.479 1215.84 250.25H1208.97C1210.32 244.708 1211.38 239.479 1212.12 234.562H1220.88L1221.34 235.281ZM33.4688 300.188C31.4479 300.188 29.8646 300.833 28.7188 302.125C27.5729 303.396 26.9167 305.208 26.75 307.562H40.125C40.0833 305.208 39.4688 303.396 38.2812 302.125C37.0938 300.833 35.4896 300.188 33.4688 300.188ZM34.8125 329.625C29.1875 329.625 24.7917 328.073 21.625 324.969C18.4583 321.865 16.875 317.469 16.875 311.781C16.875 305.927 18.3333 301.406 21.25 298.219C24.1875 295.01 28.2396 293.406 33.4062 293.406C38.3438 293.406 42.1875 294.812 44.9375 297.625C47.6875 300.438 49.0625 304.323 49.0625 309.281V313.906H26.5312C26.6354 316.615 27.4375 318.729 28.9375 320.25C30.4375 321.771 32.5417 322.531 35.25 322.531C37.3542 322.531 39.3438 322.312 41.2188 321.875C43.0938 321.438 45.0521 320.74 47.0938 319.781V327.156C45.4271 327.99 43.6458 328.604 41.75 329C39.8542 329.417 37.5417 329.625 34.8125 329.625ZM89.0625 329H79.5312V308.594C79.5312 306.073 79.0833 304.188 78.1875 302.938C77.2917 301.667 75.8646 301.031 73.9062 301.031C71.2396 301.031 69.3125 301.927 68.125 303.719C66.9375 305.49 66.3438 308.438 66.3438 312.562V329H56.8125V294.062H64.0938L65.375 298.531H65.9062C66.9688 296.844 68.4271 295.573 70.2812 294.719C72.1562 293.844 74.2812 293.406 76.6562 293.406C80.7188 293.406 83.8021 294.51 85.9062 296.719C88.0104 298.906 89.0625 302.073 89.0625 306.219V329ZM153.438 283.312V312.875C153.438 316.25 152.677 319.208 151.156 321.75C149.656 324.292 147.479 326.24 144.625 327.594C141.771 328.948 138.396 329.625 134.5 329.625C128.625 329.625 124.062 328.125 120.812 325.125C117.562 322.104 115.938 317.979 115.938 312.75V283.312H125.594V311.281C125.594 314.802 126.302 317.385 127.719 319.031C129.135 320.677 131.479 321.5 134.75 321.5C137.917 321.5 140.208 320.677 141.625 319.031C143.062 317.365 143.781 314.76 143.781 311.219V283.312H153.438ZM183.375 293.406C184.667 293.406 185.74 293.5 186.594 293.688L185.875 302.625C185.104 302.417 184.167 302.312 183.062 302.312C180.021 302.312 177.646 303.094 175.938 304.656C174.25 306.219 173.406 308.406 173.406 311.219V329H163.875V294.062H171.094L172.5 299.938H172.969C174.052 297.979 175.51 296.406 177.344 295.219C179.198 294.01 181.208 293.406 183.375 293.406ZM217.688 329L216.406 324.531H215.906C214.885 326.156 213.438 327.417 211.562 328.312C209.688 329.188 207.552 329.625 205.156 329.625C201.052 329.625 197.958 328.531 195.875 326.344C193.792 324.135 192.75 320.969 192.75 316.844V294.062H202.281V314.469C202.281 316.99 202.729 318.885 203.625 320.156C204.521 321.406 205.948 322.031 207.906 322.031C210.573 322.031 212.5 321.146 213.688 319.375C214.875 317.583 215.469 314.625 215.469 310.5V294.062H225V329H217.688ZM265.406 294.062V298.906L259.938 300.312C260.938 301.875 261.438 303.625 261.438 305.562C261.438 309.312 260.125 312.24 257.5 314.344C254.896 316.427 251.271 317.469 246.625 317.469L244.906 317.375L243.5 317.219C242.521 317.969 242.031 318.802 242.031 319.719C242.031 321.094 243.781 321.781 247.281 321.781H253.219C257.052 321.781 259.969 322.604 261.969 324.25C263.99 325.896 265 328.312 265 331.5C265 335.583 263.292 338.75 259.875 341C256.479 343.25 251.594 344.375 245.219 344.375C240.344 344.375 236.615 343.521 234.031 341.812C231.469 340.125 230.188 337.75 230.188 334.688C230.188 332.583 230.844 330.823 232.156 329.406C233.469 327.99 235.396 326.979 237.938 326.375C236.958 325.958 236.104 325.281 235.375 324.344C234.646 323.385 234.281 322.375 234.281 321.312C234.281 319.979 234.667 318.875 235.438 318C236.208 317.104 237.323 316.229 238.781 315.375C236.948 314.583 235.49 313.312 234.406 311.562C233.344 309.812 232.812 307.75 232.812 305.375C232.812 301.562 234.052 298.615 236.531 296.531C239.01 294.448 242.552 293.406 247.156 293.406C248.135 293.406 249.292 293.5 250.625 293.688C251.979 293.854 252.844 293.979 253.219 294.062H265.406ZM238.438 333.938C238.438 335.25 239.062 336.281 240.312 337.031C241.583 337.781 243.354 338.156 245.625 338.156C249.042 338.156 251.719 337.688 253.656 336.75C255.594 335.812 256.562 334.531 256.562 332.906C256.562 331.594 255.99 330.688 254.844 330.188C253.698 329.688 251.927 329.438 249.531 329.438H244.594C242.844 329.438 241.375 329.844 240.188 330.656C239.021 331.49 238.438 332.583 238.438 333.938ZM241.906 305.5C241.906 307.396 242.333 308.896 243.188 310C244.062 311.104 245.385 311.656 247.156 311.656C248.948 311.656 250.26 311.104 251.094 310C251.927 308.896 252.344 307.396 252.344 305.5C252.344 301.292 250.615 299.188 247.156 299.188C243.656 299.188 241.906 301.292 241.906 305.5ZM295.938 329L294.656 324.531H294.156C293.135 326.156 291.688 327.417 289.812 328.312C287.938 329.188 285.802 329.625 283.406 329.625C279.302 329.625 276.208 328.531 274.125 326.344C272.042 324.135 271 320.969 271 316.844V294.062H280.531V314.469C280.531 316.99 280.979 318.885 281.875 320.156C282.771 321.406 284.198 322.031 286.156 322.031C288.823 322.031 290.75 321.146 291.938 319.375C293.125 317.583 293.719 314.625 293.719 310.5V294.062H303.25V329H295.938ZM335.438 329L333.594 324.25H333.344C331.74 326.271 330.083 327.677 328.375 328.469C326.688 329.24 324.479 329.625 321.75 329.625C318.396 329.625 315.75 328.667 313.812 326.75C311.896 324.833 310.938 322.104 310.938 318.562C310.938 314.854 312.229 312.125 314.812 310.375C317.417 308.604 321.333 307.625 326.562 307.438L332.625 307.25V305.719C332.625 302.177 330.812 300.406 327.188 300.406C324.396 300.406 321.115 301.25 317.344 302.938L314.188 296.5C318.208 294.396 322.667 293.344 327.562 293.344C332.25 293.344 335.844 294.365 338.344 296.406C340.844 298.448 342.094 301.552 342.094 305.719V329H335.438ZM332.625 312.812L328.938 312.938C326.167 313.021 324.104 313.521 322.75 314.438C321.396 315.354 320.719 316.75 320.719 318.625C320.719 321.312 322.26 322.656 325.344 322.656C327.552 322.656 329.312 322.021 330.625 320.75C331.958 319.479 332.625 317.792 332.625 315.688V312.812ZM346.938 294.062H357.375L363.969 313.719C364.531 315.427 364.917 317.448 365.125 319.781H365.312C365.542 317.635 365.99 315.615 366.656 313.719L373.125 294.062H383.344L368.562 333.469C367.208 337.115 365.271 339.844 362.75 341.656C360.25 343.469 357.323 344.375 353.969 344.375C352.323 344.375 350.708 344.198 349.125 343.844V336.281C350.271 336.552 351.521 336.688 352.875 336.688C354.562 336.688 356.031 336.167 357.281 335.125C358.552 334.104 359.542 332.552 360.25 330.469L360.812 328.75L346.938 294.062ZM400 294.062H410.438L417.031 313.719C417.594 315.427 417.979 317.448 418.188 319.781H418.375C418.604 317.635 419.052 315.615 419.719 313.719L426.188 294.062H436.406L421.625 333.469C420.271 337.115 418.333 339.844 415.812 341.656C413.312 343.469 410.385 344.375 407.031 344.375C405.385 344.375 403.771 344.198 402.188 343.844V336.281C403.333 336.552 404.583 336.688 405.938 336.688C407.625 336.688 409.094 336.167 410.344 335.125C411.615 334.104 412.604 332.552 413.312 330.469L413.875 328.75L400 294.062ZM486.781 329L483.469 318.125H466.812L463.5 329H453.062L469.188 283.125H481.031L497.219 329H486.781ZM481.156 310C478.094 300.146 476.365 294.573 475.969 293.281C475.594 291.99 475.323 290.969 475.156 290.219C474.469 292.885 472.5 299.479 469.25 310H481.156ZM533.531 329H524V308.594C524 306.073 523.573 304.188 522.719 302.938C521.885 301.667 520.562 301.031 518.75 301.031C516.312 301.031 514.542 301.927 513.438 303.719C512.333 305.51 511.781 308.458 511.781 312.562V329H502.25V294.062H509.531L510.812 298.531H511.344C512.281 296.927 513.635 295.677 515.406 294.781C517.177 293.865 519.208 293.406 521.5 293.406C526.729 293.406 530.271 295.115 532.125 298.531H532.969C533.906 296.906 535.281 295.646 537.094 294.75C538.927 293.854 540.99 293.406 543.281 293.406C547.24 293.406 550.229 294.427 552.25 296.469C554.292 298.49 555.312 301.74 555.312 306.219V329H545.75V308.594C545.75 306.073 545.323 304.188 544.469 302.938C543.635 301.667 542.312 301.031 540.5 301.031C538.167 301.031 536.417 301.865 535.25 303.531C534.104 305.198 533.531 307.844 533.531 311.469V329ZM579.594 300.188C577.573 300.188 575.99 300.833 574.844 302.125C573.698 303.396 573.042 305.208 572.875 307.562H586.25C586.208 305.208 585.594 303.396 584.406 302.125C583.219 300.833 581.615 300.188 579.594 300.188ZM580.938 329.625C575.312 329.625 570.917 328.073 567.75 324.969C564.583 321.865 563 317.469 563 311.781C563 305.927 564.458 301.406 567.375 298.219C570.312 295.01 574.365 293.406 579.531 293.406C584.469 293.406 588.312 294.812 591.062 297.625C593.812 300.438 595.188 304.323 595.188 309.281V313.906H572.656C572.76 316.615 573.562 318.729 575.062 320.25C576.562 321.771 578.667 322.531 581.375 322.531C583.479 322.531 585.469 322.312 587.344 321.875C589.219 321.438 591.177 320.74 593.219 319.781V327.156C591.552 327.99 589.771 328.604 587.875 329C585.979 329.417 583.667 329.625 580.938 329.625ZM574.094 290.219V289.375C577.677 285.208 580.125 282.073 581.438 279.969H592.125V280.625C591.042 281.708 589.188 283.323 586.562 285.469C583.958 287.594 581.917 289.177 580.438 290.219H574.094ZM622.438 293.406C623.729 293.406 624.802 293.5 625.656 293.688L624.938 302.625C624.167 302.417 623.229 302.312 622.125 302.312C619.083 302.312 616.708 303.094 615 304.656C613.312 306.219 612.469 308.406 612.469 311.219V329H602.938V294.062H610.156L611.562 299.938H612.031C613.115 297.979 614.573 296.406 616.406 295.219C618.26 294.01 620.271 293.406 622.438 293.406ZM631.594 285.031C631.594 281.927 633.323 280.375 636.781 280.375C640.24 280.375 641.969 281.927 641.969 285.031C641.969 286.51 641.531 287.667 640.656 288.5C639.802 289.312 638.51 289.719 636.781 289.719C633.323 289.719 631.594 288.156 631.594 285.031ZM641.531 329H632V294.062H641.531V329ZM665.75 329.625C654.875 329.625 649.438 323.656 649.438 311.719C649.438 305.781 650.917 301.25 653.875 298.125C656.833 294.979 661.073 293.406 666.594 293.406C670.635 293.406 674.26 294.198 677.469 295.781L674.656 303.156C673.156 302.552 671.76 302.062 670.469 301.688C669.177 301.292 667.885 301.094 666.594 301.094C661.635 301.094 659.156 304.615 659.156 311.656C659.156 318.49 661.635 321.906 666.594 321.906C668.427 321.906 670.125 321.667 671.688 321.188C673.25 320.688 674.812 319.917 676.375 318.875V327.031C674.833 328.01 673.271 328.688 671.688 329.062C670.125 329.438 668.146 329.625 665.75 329.625ZM706.688 329L704.844 324.25H704.594C702.99 326.271 701.333 327.677 699.625 328.469C697.938 329.24 695.729 329.625 693 329.625C689.646 329.625 687 328.667 685.062 326.75C683.146 324.833 682.188 322.104 682.188 318.562C682.188 314.854 683.479 312.125 686.062 310.375C688.667 308.604 692.583 307.625 697.812 307.438L703.875 307.25V305.719C703.875 302.177 702.062 300.406 698.438 300.406C695.646 300.406 692.365 301.25 688.594 302.938L685.438 296.5C689.458 294.396 693.917 293.344 698.812 293.344C703.5 293.344 707.094 294.365 709.594 296.406C712.094 298.448 713.344 301.552 713.344 305.719V329H706.688ZM703.875 312.812L700.188 312.938C697.417 313.021 695.354 313.521 694 314.438C692.646 315.354 691.969 316.75 691.969 318.625C691.969 321.312 693.51 322.656 696.594 322.656C698.802 322.656 700.562 322.021 701.875 320.75C703.208 319.479 703.875 317.792 703.875 315.688V312.812ZM740.562 329V283.312H750.25V321H768.781V329H740.562ZM798.188 329L796.344 324.25H796.094C794.49 326.271 792.833 327.677 791.125 328.469C789.438 329.24 787.229 329.625 784.5 329.625C781.146 329.625 778.5 328.667 776.562 326.75C774.646 324.833 773.688 322.104 773.688 318.562C773.688 314.854 774.979 312.125 777.562 310.375C780.167 308.604 784.083 307.625 789.312 307.438L795.375 307.25V305.719C795.375 302.177 793.562 300.406 789.938 300.406C787.146 300.406 783.865 301.25 780.094 302.938L776.938 296.5C780.958 294.396 785.417 293.344 790.312 293.344C795 293.344 798.594 294.365 801.094 296.406C803.594 298.448 804.844 301.552 804.844 305.719V329H798.188ZM795.375 312.812L791.688 312.938C788.917 313.021 786.854 313.521 785.5 314.438C784.146 315.354 783.469 316.75 783.469 318.625C783.469 321.312 785.01 322.656 788.094 322.656C790.302 322.656 792.062 322.021 793.375 320.75C794.708 319.479 795.375 317.792 795.375 315.688V312.812ZM829.406 322.031C831.073 322.031 833.073 321.667 835.406 320.938V328.031C833.031 329.094 830.115 329.625 826.656 329.625C822.844 329.625 820.062 328.667 818.312 326.75C816.583 324.812 815.719 321.917 815.719 318.062V301.219H811.156V297.188L816.406 294L819.156 286.625H825.25V294.062H835.031V301.219H825.25V318.062C825.25 319.417 825.625 320.417 826.375 321.062C827.146 321.708 828.156 322.031 829.406 322.031ZM842.094 285.031C842.094 281.927 843.823 280.375 847.281 280.375C850.74 280.375 852.469 281.927 852.469 285.031C852.469 286.51 852.031 287.667 851.156 288.5C850.302 289.312 849.01 289.719 847.281 289.719C843.823 289.719 842.094 288.156 842.094 285.031ZM852.031 329H842.5V294.062H852.031V329ZM894.312 329H884.781V308.594C884.781 306.073 884.333 304.188 883.438 302.938C882.542 301.667 881.115 301.031 879.156 301.031C876.49 301.031 874.562 301.927 873.375 303.719C872.188 305.49 871.594 308.438 871.594 312.562V329H862.062V294.062H869.344L870.625 298.531H871.156C872.219 296.844 873.677 295.573 875.531 294.719C877.406 293.844 879.531 293.406 881.906 293.406C885.969 293.406 889.052 294.51 891.156 296.719C893.26 298.906 894.312 302.073 894.312 306.219V329ZM926.312 329L924.469 324.25H924.219C922.615 326.271 920.958 327.677 919.25 328.469C917.562 329.24 915.354 329.625 912.625 329.625C909.271 329.625 906.625 328.667 904.688 326.75C902.771 324.833 901.812 322.104 901.812 318.562C901.812 314.854 903.104 312.125 905.688 310.375C908.292 308.604 912.208 307.625 917.438 307.438L923.5 307.25V305.719C923.5 302.177 921.688 300.406 918.062 300.406C915.271 300.406 911.99 301.25 908.219 302.938L905.062 296.5C909.083 294.396 913.542 293.344 918.438 293.344C923.125 293.344 926.719 294.365 929.219 296.406C931.719 298.448 932.969 301.552 932.969 305.719V329H926.312ZM923.5 312.812L919.812 312.938C917.042 313.021 914.979 313.521 913.625 314.438C912.271 315.354 911.594 316.75 911.594 318.625C911.594 321.312 913.135 322.656 916.219 322.656C918.427 322.656 920.188 322.021 921.5 320.75C922.833 319.479 923.5 317.792 923.5 315.688V312.812Z" fill="black"/>
<path d="M942 355C890.135 357.264 766.694 360.433 687.846 355C608.998 349.567 273.762 352.736 116 355" stroke="black" stroke-width="2"/>
<path d="M762 255.991C673.354 253.734 481.197 250.574 421.74 255.991C347.419 262.762 216.472 255.991 211.922 255.991C208.282 255.991 216.135 255.238 223.045 254.862" stroke="black" stroke-width="2"/>
</svg>
