<svg width="260" height="287" viewBox="0 0 260 287" fill="none" xmlns="http://www.w3.org/2000/svg">
<path d="M11.8604 204.989C11.8604 205.422 11.8079 205.851 11.7031 206.274C11.6029 206.694 11.4479 207.074 11.2383 207.416C11.0286 207.753 10.7643 208.024 10.4453 208.229C10.1309 208.43 9.75716 208.53 9.32422 208.53C8.98242 208.53 8.67936 208.448 8.41504 208.284C8.15527 208.12 7.97298 207.908 7.86816 207.648H7.75879C7.56738 207.881 7.31673 208.086 7.00684 208.264C6.69694 208.441 6.32096 208.53 5.87891 208.53C5.04492 208.53 4.40234 208.282 3.95117 207.785C3.5 207.284 3.27441 206.628 3.27441 205.816C3.27441 205.188 3.40885 204.634 3.67773 204.155C3.94661 203.672 4.32943 203.294 4.82617 203.021C5.32292 202.747 5.90853 202.61 6.58301 202.61C7.02507 202.61 7.47852 202.651 7.94336 202.733C8.41276 202.811 8.77962 202.895 9.04395 202.986L8.90723 205.857C8.89811 205.953 8.89128 206.049 8.88672 206.145C8.88672 206.24 8.88672 206.302 8.88672 206.329C8.88672 206.716 8.93913 206.974 9.04395 207.102C9.15332 207.225 9.27409 207.286 9.40625 207.286C9.61589 207.286 9.79134 207.181 9.93262 206.972C10.0739 206.762 10.181 206.482 10.2539 206.131C10.3268 205.78 10.3633 205.395 10.3633 204.976C10.3633 204.196 10.2038 203.533 9.88477 202.986C9.57031 202.435 9.13737 202.016 8.58594 201.729C8.03906 201.437 7.41699 201.291 6.71973 201.291C5.986 201.291 5.33887 201.407 4.77832 201.64C4.21777 201.872 3.74609 202.198 3.36328 202.617C2.98503 203.036 2.69792 203.531 2.50195 204.101C2.31055 204.67 2.21484 205.292 2.21484 205.967C2.21484 206.805 2.36523 207.516 2.66602 208.1C2.9668 208.683 3.40885 209.125 3.99219 209.426C4.58008 209.727 5.29785 209.877 6.14551 209.877C6.68783 209.877 7.25065 209.818 7.83398 209.699C8.42188 209.576 8.95964 209.424 9.44727 209.241V210.561C9.00065 210.747 8.50163 210.896 7.9502 211.005C7.39876 211.119 6.81543 211.176 6.2002 211.176C5.04264 211.176 4.05371 210.971 3.2334 210.561C2.41309 210.15 1.78418 209.56 1.34668 208.79C0.913737 208.015 0.697266 207.088 0.697266 206.008C0.697266 205.16 0.836263 204.374 1.11426 203.649C1.39681 202.92 1.80013 202.285 2.32422 201.742C2.84831 201.195 3.47949 200.769 4.21777 200.464C4.96061 200.159 5.79004 200.006 6.70605 200.006C7.7041 200.006 8.59049 200.209 9.36523 200.614C10.1445 201.015 10.7552 201.587 11.1973 202.33C11.6393 203.073 11.8604 203.959 11.8604 204.989ZM4.86035 205.844C4.86035 206.354 4.96517 206.723 5.1748 206.951C5.389 207.174 5.67611 207.286 6.03613 207.286C6.50553 207.286 6.83594 207.115 7.02734 206.773C7.21875 206.432 7.3304 205.985 7.3623 205.434L7.45117 203.923C7.34635 203.9 7.22786 203.884 7.0957 203.875C6.96354 203.861 6.81999 203.854 6.66504 203.854C6.22298 203.854 5.86979 203.952 5.60547 204.148C5.34115 204.34 5.14974 204.588 5.03125 204.894C4.91732 205.194 4.86035 205.511 4.86035 205.844ZM13.8223 200.006H16.9326C18.2633 200.006 19.2705 200.193 19.9541 200.566C20.6377 200.94 20.9795 201.596 20.9795 202.535C20.9795 202.913 20.918 203.255 20.7949 203.561C20.6764 203.866 20.5033 204.117 20.2754 204.312C20.0475 204.508 19.7695 204.636 19.4414 204.695V204.764C19.7741 204.832 20.0749 204.951 20.3438 205.119C20.6126 205.283 20.8268 205.525 20.9863 205.844C21.1504 206.158 21.2324 206.577 21.2324 207.102C21.2324 207.708 21.0843 208.227 20.7881 208.66C20.4919 209.093 20.068 209.426 19.5166 209.658C18.9697 209.886 18.318 210 17.5615 210H13.8223V200.006ZM15.9414 203.964H17.1719C17.7871 203.964 18.2132 203.868 18.4502 203.677C18.6872 203.481 18.8057 203.194 18.8057 202.815C18.8057 202.433 18.6644 202.159 18.3818 201.995C18.1038 201.826 17.6618 201.742 17.0557 201.742H15.9414V203.964ZM15.9414 205.646V208.25H17.3223C17.9603 208.25 18.4046 208.127 18.6553 207.881C18.9059 207.635 19.0312 207.304 19.0312 206.89C19.0312 206.644 18.9766 206.427 18.8672 206.24C18.7578 206.053 18.5732 205.908 18.3135 205.803C18.0583 205.698 17.7051 205.646 17.2539 205.646H15.9414ZM30.0098 206.165C30.0098 206.803 29.9232 207.368 29.75 207.86C29.5814 208.353 29.333 208.77 29.0049 209.111C28.6813 209.449 28.2894 209.704 27.8291 209.877C27.3734 210.05 26.8584 210.137 26.2842 210.137C25.7464 210.137 25.252 210.05 24.8008 209.877C24.3542 209.704 23.9645 209.449 23.6318 209.111C23.3037 208.77 23.0485 208.353 22.8662 207.86C22.6885 207.368 22.5996 206.803 22.5996 206.165C22.5996 205.317 22.75 204.6 23.0508 204.012C23.3516 203.424 23.7799 202.977 24.3359 202.672C24.8919 202.367 25.555 202.214 26.3252 202.214C27.0407 202.214 27.6742 202.367 28.2256 202.672C28.7816 202.977 29.2168 203.424 29.5312 204.012C29.8503 204.6 30.0098 205.317 30.0098 206.165ZM24.7256 206.165C24.7256 206.666 24.7803 207.088 24.8896 207.43C24.999 207.771 25.1699 208.029 25.4023 208.202C25.6348 208.375 25.9378 208.462 26.3115 208.462C26.6807 208.462 26.9792 208.375 27.207 208.202C27.4395 208.029 27.6081 207.771 27.7129 207.43C27.8223 207.088 27.877 206.666 27.877 206.165C27.877 205.659 27.8223 205.24 27.7129 204.907C27.6081 204.57 27.4395 204.317 27.207 204.148C26.9746 203.98 26.6715 203.896 26.2979 203.896C25.7464 203.896 25.3454 204.085 25.0947 204.463C24.8486 204.841 24.7256 205.409 24.7256 206.165ZM35.998 202.214C36.1029 202.214 36.2236 202.221 36.3604 202.234C36.5016 202.243 36.6156 202.257 36.7021 202.275L36.5449 204.23C36.4766 204.208 36.3786 204.192 36.251 204.183C36.1279 204.169 36.0208 204.162 35.9297 204.162C35.6608 204.162 35.3988 204.196 35.1436 204.265C34.8929 204.333 34.6673 204.445 34.4668 204.6C34.2663 204.75 34.1068 204.951 33.9883 205.201C33.8743 205.447 33.8174 205.75 33.8174 206.11V210H31.7324V202.357H33.3115L33.6191 203.643H33.7217C33.8721 203.383 34.0589 203.146 34.2822 202.932C34.5101 202.713 34.7676 202.54 35.0547 202.412C35.3464 202.28 35.6608 202.214 35.998 202.214ZM45.0352 206.165C45.0352 206.803 44.9486 207.368 44.7754 207.86C44.6068 208.353 44.3584 208.77 44.0303 209.111C43.7067 209.449 43.3148 209.704 42.8545 209.877C42.3988 210.05 41.8838 210.137 41.3096 210.137C40.7718 210.137 40.2773 210.05 39.8262 209.877C39.3796 209.704 38.9899 209.449 38.6572 209.111C38.3291 208.77 38.0739 208.353 37.8916 207.86C37.7139 207.368 37.625 206.803 37.625 206.165C37.625 205.317 37.7754 204.6 38.0762 204.012C38.377 203.424 38.8053 202.977 39.3613 202.672C39.9173 202.367 40.5804 202.214 41.3506 202.214C42.0661 202.214 42.6995 202.367 43.251 202.672C43.807 202.977 44.2422 203.424 44.5566 204.012C44.8757 204.6 45.0352 205.317 45.0352 206.165ZM39.751 206.165C39.751 206.666 39.8057 207.088 39.915 207.43C40.0244 207.771 40.1953 208.029 40.4277 208.202C40.6602 208.375 40.9632 208.462 41.3369 208.462C41.7061 208.462 42.0046 208.375 42.2324 208.202C42.4648 208.029 42.6335 207.771 42.7383 207.43C42.8477 207.088 42.9023 206.666 42.9023 206.165C42.9023 205.659 42.8477 205.24 42.7383 204.907C42.6335 204.57 42.4648 204.317 42.2324 204.148C42 203.98 41.6969 203.896 41.3232 203.896C40.7718 203.896 40.3708 204.085 40.1201 204.463C39.874 204.841 39.751 205.409 39.751 206.165ZM51.0986 202.214C51.9144 202.214 52.5706 202.437 53.0674 202.884C53.5641 203.326 53.8125 204.037 53.8125 205.017V210H51.7275V205.536C51.7275 204.989 51.6273 204.577 51.4268 204.299C51.2308 204.021 50.9209 203.882 50.4971 203.882C49.859 203.882 49.4238 204.098 49.1914 204.531C48.959 204.964 48.8428 205.589 48.8428 206.404V210H46.7578V202.357H48.3506L48.6309 203.335H48.7471C48.9111 203.071 49.1139 202.856 49.3555 202.692C49.6016 202.528 49.8727 202.408 50.1689 202.33C50.4697 202.253 50.7796 202.214 51.0986 202.214ZM61.291 207.73C61.291 208.25 61.168 208.69 60.9219 209.05C60.6803 209.405 60.318 209.676 59.835 209.863C59.3519 210.046 58.7503 210.137 58.0303 210.137C57.4971 210.137 57.0391 210.103 56.6562 210.034C56.278 209.966 55.8952 209.852 55.5078 209.692V207.97C55.9225 208.157 56.3669 208.312 56.8408 208.435C57.3193 208.553 57.7386 208.612 58.0986 208.612C58.5042 208.612 58.7936 208.553 58.9668 208.435C59.1445 208.312 59.2334 208.152 59.2334 207.956C59.2334 207.828 59.1969 207.715 59.124 207.614C59.0557 207.509 58.9053 207.393 58.6729 207.266C58.4404 207.133 58.0758 206.963 57.5791 206.753C57.1006 206.552 56.7064 206.35 56.3965 206.145C56.0911 205.939 55.8633 205.698 55.7129 205.42C55.5671 205.137 55.4941 204.78 55.4941 204.347C55.4941 203.64 55.7676 203.109 56.3145 202.754C56.8659 202.394 57.6019 202.214 58.5225 202.214C58.9964 202.214 59.4476 202.262 59.876 202.357C60.3089 202.453 60.7533 202.606 61.209 202.815L60.5801 204.319C60.2018 204.155 59.8441 204.021 59.5068 203.916C59.1742 203.811 58.8346 203.759 58.4883 203.759C58.1829 203.759 57.9528 203.8 57.7979 203.882C57.6429 203.964 57.5654 204.089 57.5654 204.258C57.5654 204.381 57.6042 204.49 57.6816 204.586C57.7637 204.682 57.9186 204.789 58.1465 204.907C58.3789 205.021 58.7184 205.169 59.165 205.352C59.598 205.529 59.974 205.716 60.293 205.912C60.612 206.104 60.8581 206.343 61.0312 206.63C61.2044 206.912 61.291 207.279 61.291 207.73ZM66.1377 208.476C66.3656 208.476 66.5866 208.453 66.8008 208.407C67.0195 208.362 67.236 208.305 67.4502 208.236V209.788C67.2269 209.888 66.9489 209.97 66.6162 210.034C66.2881 210.103 65.9281 210.137 65.5361 210.137C65.0804 210.137 64.6702 210.064 64.3057 209.918C63.9456 209.768 63.6608 209.51 63.4512 209.146C63.2461 208.776 63.1436 208.264 63.1436 207.607V203.923H62.1455V203.041L63.2939 202.344L63.8955 200.73H65.2285V202.357H67.3682V203.923H65.2285V207.607C65.2285 207.899 65.3105 208.118 65.4746 208.264C65.6432 208.405 65.8643 208.476 66.1377 208.476ZM76.0156 202.357V210H74.416L74.1357 209.022H74.0264C73.8623 209.282 73.6572 209.494 73.4111 209.658C73.165 209.822 72.8939 209.943 72.5977 210.021C72.3014 210.098 71.9938 210.137 71.6748 210.137C71.1279 210.137 70.6517 210.041 70.2461 209.85C69.8405 209.654 69.5238 209.351 69.2959 208.94C69.0726 208.53 68.9609 207.997 68.9609 207.341V202.357H71.0459V206.821C71.0459 207.368 71.1439 207.781 71.3398 208.059C71.5358 208.337 71.848 208.476 72.2764 208.476C72.7002 208.476 73.0329 208.38 73.2744 208.188C73.516 207.993 73.6846 207.708 73.7803 207.334C73.8805 206.956 73.9307 206.495 73.9307 205.953V202.357H76.0156ZM80.623 210.137C79.7708 210.137 79.0758 209.804 78.5381 209.139C78.0049 208.469 77.7383 207.487 77.7383 206.192C77.7383 204.884 78.0094 203.896 78.5518 203.226C79.0941 202.551 79.8027 202.214 80.6777 202.214C81.0423 202.214 81.3636 202.264 81.6416 202.364C81.9196 202.465 82.1589 202.599 82.3594 202.768C82.5645 202.936 82.7376 203.125 82.8789 203.335H82.9473C82.9199 203.189 82.8857 202.975 82.8447 202.692C82.8083 202.405 82.79 202.111 82.79 201.811V199.363H84.8818V210H83.2822L82.8789 209.009H82.79C82.6579 209.218 82.4915 209.41 82.291 209.583C82.0951 209.752 81.8604 209.886 81.5869 209.986C81.3135 210.087 80.9922 210.137 80.623 210.137ZM81.3545 208.476C81.9242 208.476 82.3252 208.307 82.5576 207.97C82.7946 207.628 82.9199 207.115 82.9336 206.432V206.206C82.9336 205.463 82.8197 204.896 82.5918 204.504C82.3639 204.107 81.9401 203.909 81.3203 203.909C80.86 203.909 80.5 204.107 80.2402 204.504C79.9805 204.9 79.8506 205.472 79.8506 206.22C79.8506 206.967 79.9805 207.53 80.2402 207.908C80.5046 208.286 80.876 208.476 81.3545 208.476ZM89.1475 202.357V210H87.0625V202.357H89.1475ZM88.1084 199.363C88.4183 199.363 88.6849 199.436 88.9082 199.582C89.1315 199.723 89.2432 199.99 89.2432 200.382C89.2432 200.769 89.1315 201.038 88.9082 201.188C88.6849 201.334 88.4183 201.407 88.1084 201.407C87.7939 201.407 87.5251 201.334 87.3018 201.188C87.083 201.038 86.9736 200.769 86.9736 200.382C86.9736 199.99 87.083 199.723 87.3018 199.582C87.5251 199.436 87.7939 199.363 88.1084 199.363ZM98.2871 206.165C98.2871 206.803 98.2005 207.368 98.0273 207.86C97.8587 208.353 97.6104 208.77 97.2822 209.111C96.9587 209.449 96.5667 209.704 96.1064 209.877C95.6507 210.05 95.1357 210.137 94.5615 210.137C94.0238 210.137 93.5293 210.05 93.0781 209.877C92.6315 209.704 92.2419 209.449 91.9092 209.111C91.5811 208.77 91.3258 208.353 91.1436 207.86C90.9658 207.368 90.877 206.803 90.877 206.165C90.877 205.317 91.0273 204.6 91.3281 204.012C91.6289 203.424 92.0573 202.977 92.6133 202.672C93.1693 202.367 93.8324 202.214 94.6025 202.214C95.318 202.214 95.9515 202.367 96.5029 202.672C97.0589 202.977 97.4941 203.424 97.8086 204.012C98.1276 204.6 98.2871 205.317 98.2871 206.165ZM93.0029 206.165C93.0029 206.666 93.0576 207.088 93.167 207.43C93.2764 207.771 93.4473 208.029 93.6797 208.202C93.9121 208.375 94.2152 208.462 94.5889 208.462C94.958 208.462 95.2565 208.375 95.4844 208.202C95.7168 208.029 95.8854 207.771 95.9902 207.43C96.0996 207.088 96.1543 206.666 96.1543 206.165C96.1543 205.659 96.0996 205.24 95.9902 204.907C95.8854 204.57 95.7168 204.317 95.4844 204.148C95.252 203.98 94.9489 203.896 94.5752 203.896C94.0238 203.896 93.6227 204.085 93.3721 204.463C93.126 204.841 93.0029 205.409 93.0029 206.165Z" fill="white"/>
<path d="M8.17969 18.8281C8.17969 19.8594 7.80729 20.6719 7.0625 21.2656C6.32292 21.8594 5.29167 22.1562 3.96875 22.1562C2.75 22.1562 1.67188 21.9271 0.734375 21.4688V19.2188C1.50521 19.5625 2.15625 19.8047 2.6875 19.9453C3.22396 20.0859 3.71354 20.1562 4.15625 20.1562C4.6875 20.1562 5.09375 20.0547 5.375 19.8516C5.66146 19.6484 5.80469 19.3464 5.80469 18.9453C5.80469 18.7214 5.74219 18.5234 5.61719 18.3516C5.49219 18.1745 5.30729 18.0052 5.0625 17.8438C4.82292 17.6823 4.33073 17.4245 3.58594 17.0703C2.88802 16.7422 2.36458 16.4271 2.01562 16.125C1.66667 15.8229 1.38802 15.4714 1.17969 15.0703C0.971354 14.6693 0.867188 14.2005 0.867188 13.6641C0.867188 12.6536 1.20833 11.8594 1.89062 11.2812C2.57812 10.7031 3.52604 10.4141 4.73438 10.4141C5.32812 10.4141 5.89323 10.4844 6.42969 10.625C6.97135 10.7656 7.53646 10.9635 8.125 11.2188L7.34375 13.1016C6.73438 12.8516 6.22917 12.6771 5.82812 12.5781C5.43229 12.4792 5.04167 12.4297 4.65625 12.4297C4.19792 12.4297 3.84635 12.5365 3.60156 12.75C3.35677 12.9635 3.23438 13.2422 3.23438 13.5859C3.23438 13.7995 3.28385 13.987 3.38281 14.1484C3.48177 14.3047 3.63802 14.4583 3.85156 14.6094C4.07031 14.7552 4.58333 15.0208 5.39062 15.4062C6.45833 15.9167 7.1901 16.4297 7.58594 16.9453C7.98177 17.4557 8.17969 18.0833 8.17969 18.8281ZM20.0281 22H13.45V10.5781H20.0281V12.5625H15.8719V15.0703H19.7391V17.0547H15.8719V20H20.0281V22ZM29.9547 15.5859H34.4859V21.5078C33.7516 21.7474 33.0589 21.9141 32.4078 22.0078C31.762 22.1068 31.1005 22.1562 30.4234 22.1562C28.6995 22.1562 27.3818 21.651 26.4703 20.6406C25.5641 19.625 25.1109 18.1693 25.1109 16.2734C25.1109 14.4297 25.637 12.9922 26.6891 11.9609C27.7464 10.9297 29.2099 10.4141 31.0797 10.4141C32.2516 10.4141 33.3818 10.6484 34.4703 11.1172L33.6656 13.0547C32.8323 12.638 31.9651 12.4297 31.0641 12.4297C30.0172 12.4297 29.1786 12.7812 28.5484 13.4844C27.9182 14.1875 27.6031 15.1328 27.6031 16.3203C27.6031 17.5599 27.8557 18.5078 28.3609 19.1641C28.8714 19.8151 29.6109 20.1406 30.5797 20.1406C31.0849 20.1406 31.5979 20.0885 32.1187 19.9844V17.6016H29.9547V15.5859ZM49.7094 10.5781V17.9688C49.7094 18.8125 49.5193 19.5521 49.1391 20.1875C48.7641 20.8229 48.2198 21.3099 47.5062 21.6484C46.7927 21.987 45.949 22.1562 44.975 22.1562C43.5062 22.1562 42.3656 21.7812 41.5531 21.0312C40.7406 20.276 40.3344 19.2448 40.3344 17.9375V10.5781H42.7484V17.5703C42.7484 18.4505 42.9255 19.0964 43.2797 19.5078C43.6339 19.9193 44.2198 20.125 45.0375 20.125C45.8292 20.125 46.4021 19.9193 46.7562 19.5078C47.1156 19.0911 47.2953 18.4401 47.2953 17.5547V10.5781H49.7094ZM55.7062 22V10.5781H58.1281V22H55.7062ZM74.3359 22H71.2578L66.2891 13.3594H66.2188C66.3177 14.8854 66.3672 15.974 66.3672 16.625V22H64.2031V10.5781H67.2578L72.2188 19.1328H72.2734C72.1953 17.6484 72.1562 16.599 72.1562 15.9844V10.5781H74.3359V22ZM90.7859 16.2734C90.7859 18.1641 90.3172 19.6172 89.3797 20.6328C88.4422 21.6484 87.0984 22.1562 85.3484 22.1562C83.5984 22.1562 82.2547 21.6484 81.3172 20.6328C80.3797 19.6172 79.9109 18.1589 79.9109 16.2578C79.9109 14.3568 80.3797 12.9062 81.3172 11.9062C82.2599 10.901 83.6089 10.3984 85.3641 10.3984C87.1193 10.3984 88.4604 10.9036 89.3875 11.9141C90.3198 12.9245 90.7859 14.3776 90.7859 16.2734ZM82.45 16.2734C82.45 17.5495 82.6922 18.5104 83.1766 19.1562C83.6609 19.8021 84.3849 20.125 85.3484 20.125C87.2807 20.125 88.2469 18.8411 88.2469 16.2734C88.2469 13.7005 87.2859 12.4141 85.3641 12.4141C84.4005 12.4141 83.674 12.7396 83.1844 13.3906C82.6948 14.0365 82.45 14.9974 82.45 16.2734ZM103.095 18.8281C103.095 19.8594 102.723 20.6719 101.978 21.2656C101.239 21.8594 100.207 22.1562 98.8844 22.1562C97.6656 22.1562 96.5875 21.9271 95.65 21.4688V19.2188C96.4208 19.5625 97.0719 19.8047 97.6031 19.9453C98.1396 20.0859 98.6292 20.1562 99.0719 20.1562C99.6031 20.1562 100.009 20.0547 100.291 19.8516C100.577 19.6484 100.72 19.3464 100.72 18.9453C100.72 18.7214 100.658 18.5234 100.533 18.3516C100.408 18.1745 100.223 18.0052 99.9781 17.8438C99.7385 17.6823 99.2464 17.4245 98.5016 17.0703C97.8036 16.7422 97.2802 16.4271 96.9313 16.125C96.5823 15.8229 96.3036 15.4714 96.0953 15.0703C95.887 14.6693 95.7828 14.2005 95.7828 13.6641C95.7828 12.6536 96.124 11.8594 96.8063 11.2812C97.4938 10.7031 98.4417 10.4141 99.65 10.4141C100.244 10.4141 100.809 10.4844 101.345 10.625C101.887 10.7656 102.452 10.9635 103.041 11.2188L102.259 13.1016C101.65 12.8516 101.145 12.6771 100.744 12.5781C100.348 12.4792 99.9573 12.4297 99.5719 12.4297C99.1135 12.4297 98.762 12.5365 98.5172 12.75C98.2724 12.9635 98.15 13.2422 98.15 13.5859C98.15 13.7995 98.1995 13.987 98.2984 14.1484C98.3974 14.3047 98.5536 14.4583 98.7672 14.6094C98.9859 14.7552 99.499 15.0208 100.306 15.4062C101.374 15.9167 102.106 16.4297 102.502 16.9453C102.897 17.4557 103.095 18.0833 103.095 18.8281ZM122.3 22H115.722V10.5781H122.3V12.5625H118.144V15.0703H122.011V17.0547H118.144V20H122.3V22ZM138.023 22H134.945L129.977 13.3594H129.906C130.005 14.8854 130.055 15.974 130.055 16.625V22H127.891V10.5781H130.945L135.906 19.1328H135.961C135.883 17.6484 135.844 16.599 135.844 15.9844V10.5781H138.023V22ZM155.869 22H153.447V12.5938H150.345V10.5781H158.97V12.5938H155.869V22ZM175.053 22H172.295L170.748 16C170.691 15.7865 170.592 15.3464 170.452 14.6797C170.316 14.0078 170.238 13.5573 170.217 13.3281C170.186 13.6094 170.108 14.0625 169.983 14.6875C169.858 15.3073 169.761 15.75 169.694 16.0156L168.155 22H165.405L162.491 10.5781H164.873L166.334 16.8125C166.59 17.9635 166.774 18.9609 166.889 19.8047C166.92 19.5078 166.991 19.0495 167.1 18.4297C167.215 17.8047 167.321 17.3203 167.42 16.9766L169.084 10.5781H171.373L173.038 16.9766C173.11 17.263 173.202 17.7005 173.311 18.2891C173.42 18.8776 173.504 19.3828 173.561 19.8047C173.613 19.3984 173.696 18.8932 173.811 18.2891C173.926 17.6797 174.03 17.1875 174.123 16.8125L175.577 10.5781H177.959L175.053 22ZM182.597 22V10.5781H185.019V22H182.597ZM195.5 22H193.078V12.5938H189.977V10.5781H198.602V12.5938H195.5V22ZM207.966 22H205.544V12.5938H202.442V10.5781H211.067V12.5938H207.966V22ZM222.603 22H216.025V10.5781H222.603V12.5625H218.447V15.0703H222.314V17.0547H218.447V20H222.603V22ZM230.616 15.6484H231.397C232.163 15.6484 232.728 15.5208 233.092 15.2656C233.457 15.0104 233.639 14.6094 233.639 14.0625C233.639 13.5208 233.452 13.1354 233.077 12.9062C232.707 12.6771 232.131 12.5625 231.35 12.5625H230.616V15.6484ZM230.616 17.6172V22H228.194V10.5781H231.522C233.074 10.5781 234.222 10.862 234.967 11.4297C235.712 11.9922 236.084 12.849 236.084 14C236.084 14.6719 235.899 15.2708 235.53 15.7969C235.16 16.3177 234.636 16.7266 233.959 17.0234C235.678 19.5911 236.798 21.25 237.319 22H234.631L231.905 17.6172H230.616Z" fill="black"/>
<path d="M3.77344 153.018H13.1045C17.0967 153.018 20.1182 153.578 22.1689 154.699C24.2197 155.82 25.2451 157.789 25.2451 160.605C25.2451 161.74 25.0605 162.766 24.6914 163.682C24.3359 164.598 23.8164 165.35 23.1328 165.938C22.4492 166.525 21.6152 166.908 20.6309 167.086V167.291C21.6289 167.496 22.5312 167.852 23.3379 168.357C24.1445 168.85 24.7871 169.574 25.2656 170.531C25.7578 171.475 26.0039 172.732 26.0039 174.305C26.0039 176.123 25.5596 177.682 24.6709 178.98C23.7822 180.279 22.5107 181.277 20.8564 181.975C19.2158 182.658 17.2607 183 14.9912 183H3.77344V153.018ZM10.1309 164.892H13.8223C15.668 164.892 16.9463 164.604 17.6572 164.03C18.3682 163.442 18.7236 162.581 18.7236 161.446C18.7236 160.298 18.2998 159.478 17.4521 158.985C16.6182 158.479 15.292 158.227 13.4736 158.227H10.1309V164.892ZM10.1309 169.937V177.75H14.2734C16.1875 177.75 17.5205 177.381 18.2725 176.643C19.0244 175.904 19.4004 174.913 19.4004 173.669C19.4004 172.931 19.2363 172.281 18.9082 171.721C18.5801 171.16 18.0264 170.723 17.2471 170.408C16.4814 170.094 15.4219 169.937 14.0684 169.937H10.1309ZM52.3359 171.495C52.3359 173.409 52.0762 175.104 51.5566 176.581C51.0508 178.058 50.3057 179.309 49.3213 180.334C48.3506 181.346 47.1748 182.111 45.7939 182.631C44.4268 183.15 42.8818 183.41 41.1592 183.41C39.5459 183.41 38.0625 183.15 36.709 182.631C35.3691 182.111 34.2002 181.346 33.2021 180.334C32.2178 179.309 31.4521 178.058 30.9053 176.581C30.3721 175.104 30.1055 173.409 30.1055 171.495C30.1055 168.952 30.5566 166.799 31.459 165.035C32.3613 163.271 33.6465 161.932 35.3145 161.016C36.9824 160.1 38.9717 159.642 41.2822 159.642C43.4287 159.642 45.3291 160.1 46.9834 161.016C48.6514 161.932 49.957 163.271 50.9004 165.035C51.8574 166.799 52.3359 168.952 52.3359 171.495ZM36.4834 171.495C36.4834 172.999 36.6475 174.264 36.9756 175.289C37.3037 176.314 37.8164 177.087 38.5137 177.606C39.2109 178.126 40.1201 178.386 41.2412 178.386C42.3486 178.386 43.2441 178.126 43.9277 177.606C44.625 177.087 45.1309 176.314 45.4453 175.289C45.7734 174.264 45.9375 172.999 45.9375 171.495C45.9375 169.978 45.7734 168.72 45.4453 167.722C45.1309 166.71 44.625 165.951 43.9277 165.445C43.2305 164.939 42.3213 164.687 41.2002 164.687C39.5459 164.687 38.3428 165.254 37.5908 166.389C36.8525 167.523 36.4834 169.226 36.4834 171.495ZM70.3008 159.642C70.6152 159.642 70.9775 159.662 71.3877 159.703C71.8115 159.73 72.1533 159.771 72.4131 159.826L71.9414 165.691C71.7363 165.623 71.4424 165.575 71.0596 165.548C70.6904 165.507 70.3691 165.486 70.0957 165.486C69.2891 165.486 68.5029 165.589 67.7373 165.794C66.9854 165.999 66.3086 166.334 65.707 166.799C65.1055 167.25 64.627 167.852 64.2715 168.604C63.9297 169.342 63.7588 170.251 63.7588 171.331V183H57.5039V160.072H62.2412L63.1641 163.928H63.4717C63.9229 163.148 64.4834 162.438 65.1533 161.795C65.8369 161.139 66.6094 160.619 67.4707 160.236C68.3457 159.84 69.2891 159.642 70.3008 159.642ZM97.4121 171.495C97.4121 173.409 97.1523 175.104 96.6328 176.581C96.127 178.058 95.3818 179.309 94.3975 180.334C93.4268 181.346 92.251 182.111 90.8701 182.631C89.5029 183.15 87.958 183.41 86.2354 183.41C84.6221 183.41 83.1387 183.15 81.7852 182.631C80.4453 182.111 79.2764 181.346 78.2783 180.334C77.2939 179.309 76.5283 178.058 75.9814 176.581C75.4482 175.104 75.1816 173.409 75.1816 171.495C75.1816 168.952 75.6328 166.799 76.5352 165.035C77.4375 163.271 78.7227 161.932 80.3906 161.016C82.0586 160.1 84.0479 159.642 86.3584 159.642C88.5049 159.642 90.4053 160.1 92.0596 161.016C93.7275 161.932 95.0332 163.271 95.9766 165.035C96.9336 166.799 97.4121 168.952 97.4121 171.495ZM81.5596 171.495C81.5596 172.999 81.7236 174.264 82.0518 175.289C82.3799 176.314 82.8926 177.087 83.5898 177.606C84.2871 178.126 85.1963 178.386 86.3174 178.386C87.4248 178.386 88.3203 178.126 89.0039 177.606C89.7012 177.087 90.207 176.314 90.5215 175.289C90.8496 174.264 91.0137 172.999 91.0137 171.495C91.0137 169.978 90.8496 168.72 90.5215 167.722C90.207 166.71 89.7012 165.951 89.0039 165.445C88.3066 164.939 87.3975 164.687 86.2764 164.687C84.6221 164.687 83.4189 165.254 82.667 166.389C81.9287 167.523 81.5596 169.226 81.5596 171.495ZM115.603 159.642C118.05 159.642 120.019 160.312 121.509 161.651C122.999 162.978 123.744 165.11 123.744 168.05V183H117.489V169.608C117.489 167.968 117.188 166.73 116.587 165.896C115.999 165.062 115.069 164.646 113.798 164.646C111.884 164.646 110.578 165.295 109.881 166.594C109.184 167.893 108.835 169.766 108.835 172.213V183H102.58V160.072H107.358L108.199 163.005H108.548C109.04 162.212 109.648 161.569 110.373 161.077C111.111 160.585 111.925 160.223 112.813 159.99C113.716 159.758 114.646 159.642 115.603 159.642ZM146.18 176.191C146.18 177.75 145.811 179.069 145.072 180.149C144.348 181.216 143.261 182.029 141.812 182.59C140.362 183.137 138.558 183.41 136.397 183.41C134.798 183.41 133.424 183.308 132.275 183.103C131.141 182.897 129.992 182.556 128.83 182.077V176.909C130.074 177.47 131.407 177.935 132.829 178.304C134.265 178.659 135.522 178.837 136.603 178.837C137.819 178.837 138.688 178.659 139.207 178.304C139.74 177.935 140.007 177.456 140.007 176.868C140.007 176.485 139.897 176.144 139.679 175.843C139.474 175.528 139.022 175.18 138.325 174.797C137.628 174.4 136.534 173.888 135.044 173.259C133.608 172.657 132.426 172.049 131.496 171.434C130.58 170.818 129.896 170.094 129.445 169.26C129.008 168.412 128.789 167.339 128.789 166.04C128.789 163.921 129.609 162.328 131.25 161.262C132.904 160.182 135.112 159.642 137.874 159.642C139.296 159.642 140.649 159.785 141.935 160.072C143.233 160.359 144.566 160.817 145.934 161.446L144.047 165.958C142.912 165.466 141.839 165.062 140.827 164.748C139.829 164.434 138.811 164.276 137.771 164.276C136.855 164.276 136.165 164.399 135.7 164.646C135.235 164.892 135.003 165.268 135.003 165.773C135.003 166.143 135.119 166.471 135.352 166.758C135.598 167.045 136.062 167.366 136.746 167.722C137.443 168.063 138.462 168.508 139.802 169.055C141.101 169.588 142.229 170.148 143.186 170.736C144.143 171.311 144.881 172.028 145.4 172.89C145.92 173.737 146.18 174.838 146.18 176.191ZM160.72 178.427C161.403 178.427 162.066 178.358 162.709 178.222C163.365 178.085 164.015 177.914 164.657 177.709V182.364C163.987 182.665 163.153 182.911 162.155 183.103C161.171 183.308 160.091 183.41 158.915 183.41C157.548 183.41 156.317 183.191 155.224 182.754C154.144 182.303 153.289 181.53 152.66 180.437C152.045 179.329 151.737 177.791 151.737 175.822V164.769H148.743V162.123L152.188 160.031L153.993 155.191H157.992V160.072H164.411V164.769H157.992V175.822C157.992 176.697 158.238 177.354 158.73 177.791C159.236 178.215 159.899 178.427 160.72 178.427ZM190.354 160.072V183H185.555L184.714 180.067H184.386C183.894 180.847 183.278 181.482 182.54 181.975C181.802 182.467 180.988 182.829 180.1 183.062C179.211 183.294 178.288 183.41 177.331 183.41C175.69 183.41 174.262 183.123 173.045 182.549C171.828 181.961 170.878 181.052 170.194 179.821C169.524 178.591 169.189 176.991 169.189 175.022V160.072H175.444V173.464C175.444 175.104 175.738 176.342 176.326 177.176C176.914 178.01 177.851 178.427 179.136 178.427C180.407 178.427 181.405 178.14 182.13 177.565C182.854 176.978 183.36 176.123 183.647 175.002C183.948 173.867 184.099 172.486 184.099 170.859V160.072H190.354ZM204.176 183.41C201.619 183.41 199.534 182.412 197.921 180.416C196.321 178.406 195.521 175.46 195.521 171.577C195.521 167.653 196.335 164.687 197.962 162.677C199.589 160.653 201.715 159.642 204.34 159.642C205.434 159.642 206.397 159.792 207.231 160.093C208.065 160.394 208.783 160.797 209.385 161.303C210 161.809 210.52 162.376 210.943 163.005H211.148C211.066 162.567 210.964 161.925 210.841 161.077C210.731 160.216 210.677 159.334 210.677 158.432V151.09H216.952V183H212.153L210.943 180.026H210.677C210.28 180.655 209.781 181.229 209.18 181.749C208.592 182.255 207.888 182.658 207.067 182.959C206.247 183.26 205.283 183.41 204.176 183.41ZM206.37 178.427C208.079 178.427 209.282 177.921 209.979 176.909C210.69 175.884 211.066 174.346 211.107 172.295V171.618C211.107 169.39 210.766 167.688 210.082 166.512C209.398 165.322 208.127 164.728 206.268 164.728C204.887 164.728 203.807 165.322 203.027 166.512C202.248 167.701 201.858 169.417 201.858 171.659C201.858 173.901 202.248 175.59 203.027 176.725C203.82 177.859 204.935 178.427 206.37 178.427ZM229.749 160.072V183H223.494V160.072H229.749ZM226.632 151.09C227.562 151.09 228.361 151.309 229.031 151.746C229.701 152.17 230.036 152.97 230.036 154.146C230.036 155.308 229.701 156.114 229.031 156.565C228.361 157.003 227.562 157.222 226.632 157.222C225.688 157.222 224.882 157.003 224.212 156.565C223.556 156.114 223.228 155.308 223.228 154.146C223.228 152.97 223.556 152.17 224.212 151.746C224.882 151.309 225.688 151.09 226.632 151.09ZM257.168 171.495C257.168 173.409 256.908 175.104 256.389 176.581C255.883 178.058 255.138 179.309 254.153 180.334C253.183 181.346 252.007 182.111 250.626 182.631C249.259 183.15 247.714 183.41 245.991 183.41C244.378 183.41 242.895 183.15 241.541 182.631C240.201 182.111 239.032 181.346 238.034 180.334C237.05 179.309 236.284 178.058 235.737 176.581C235.204 175.104 234.938 173.409 234.938 171.495C234.938 168.952 235.389 166.799 236.291 165.035C237.193 163.271 238.479 161.932 240.146 161.016C241.814 160.1 243.804 159.642 246.114 159.642C248.261 159.642 250.161 160.1 251.815 161.016C253.483 161.932 254.789 163.271 255.732 165.035C256.689 166.799 257.168 168.952 257.168 171.495ZM241.315 171.495C241.315 172.999 241.479 174.264 241.808 175.289C242.136 176.314 242.648 177.087 243.346 177.606C244.043 178.126 244.952 178.386 246.073 178.386C247.181 178.386 248.076 178.126 248.76 177.606C249.457 177.087 249.963 176.314 250.277 175.289C250.605 174.264 250.77 172.999 250.77 171.495C250.77 169.978 250.605 168.72 250.277 167.722C249.963 166.71 249.457 165.951 248.76 165.445C248.062 164.939 247.153 164.687 246.032 164.687C244.378 164.687 243.175 165.254 242.423 166.389C241.685 167.523 241.315 169.226 241.315 171.495Z" fill="black"/>
<path fill-rule="evenodd" clip-rule="evenodd" d="M12.9368 115.241C27.2761 115.241 35.1224 103.895 35.1224 94.0723C35.1224 93.7531 35.1224 93.4339 35.1072 93.1147C36.6278 92.07 37.9508 90.7498 39 89.2553C37.601 89.8502 36.0956 90.2419 34.5142 90.4305C36.126 89.5164 37.3577 88.051 37.9508 86.3099C36.4454 87.1659 34.7727 87.7754 32.9936 88.1091C31.5642 86.6581 29.5418 85.7585 27.3065 85.7585C23.0032 85.7585 19.5058 89.0957 19.5058 93.2019C19.5058 93.7822 19.5818 94.3479 19.7035 94.8993C13.2257 94.5946 7.47779 91.6203 3.63065 87.1225C2.96158 88.2252 2.58143 89.5019 2.58143 90.8657C2.58143 93.4484 3.9652 95.7264 6.04843 97.0612C4.77112 97.0177 3.56982 96.684 2.5206 96.1327C2.5206 96.1617 2.5206 96.1907 2.5206 96.2343C2.5206 99.8326 5.21207 102.85 8.7703 103.532C8.11643 103.706 7.43217 103.794 6.71748 103.794C6.21568 103.794 5.72909 103.75 5.2577 103.663C6.2461 106.623 9.13525 108.77 12.5414 108.828C9.86514 110.831 6.50461 112.02 2.85515 112.02C2.2317 112.02 1.60824 111.991 1 111.919C4.43657 114.008 8.54222 115.241 12.9368 115.241Z" fill="white"/>
<path d="M1.88281 276L2.09375 274.957L4.87695 272.467C5.24414 272.139 5.55859 271.846 5.82031 271.588C6.08203 271.33 6.29688 271.092 6.46484 270.873C6.63281 270.65 6.75586 270.434 6.83398 270.223C6.91602 270.012 6.95703 269.791 6.95703 269.561C6.95703 269.229 6.85938 268.967 6.66406 268.775C6.47266 268.58 6.20508 268.482 5.86133 268.482C5.65039 268.482 5.44531 268.516 5.24609 268.582C5.05078 268.645 4.85352 268.736 4.6543 268.857C4.45898 268.979 4.25 269.127 4.02734 269.303L3.37109 268.371C3.74219 268.066 4.14453 267.814 4.57812 267.615C5.01172 267.412 5.50586 267.311 6.06055 267.311C6.57617 267.311 7.00391 267.402 7.34375 267.586C7.6875 267.766 7.94336 268.008 8.11133 268.312C8.2832 268.613 8.36914 268.949 8.36914 269.32C8.36914 269.809 8.26758 270.254 8.06445 270.656C7.86523 271.059 7.57227 271.459 7.18555 271.857C6.79883 272.252 6.32617 272.688 5.76758 273.164L3.92188 274.74V274.793H7.57227L7.32617 276H1.88281ZM12.0078 276L13.9414 266.883H15.3066L14.8789 268.857C14.8477 269.029 14.8047 269.217 14.75 269.42C14.6992 269.623 14.6445 269.824 14.5859 270.023C14.5312 270.223 14.4785 270.406 14.4277 270.574H14.4805C14.6367 270.371 14.8125 270.18 15.0078 270C15.207 269.82 15.4297 269.676 15.6758 269.566C15.9258 269.453 16.2031 269.396 16.5078 269.396C16.8633 269.396 17.1641 269.467 17.4102 269.607C17.6562 269.744 17.8438 269.943 17.9727 270.205C18.1016 270.463 18.166 270.779 18.166 271.154C18.166 271.303 18.1543 271.463 18.1309 271.635C18.1074 271.803 18.0762 271.979 18.0371 272.162L17.2227 276H15.8516L16.6836 272.062C16.7188 271.91 16.7441 271.773 16.7598 271.652C16.7754 271.531 16.7832 271.422 16.7832 271.324C16.7832 271.059 16.7207 270.857 16.5957 270.721C16.4707 270.584 16.2773 270.516 16.0156 270.516C15.7383 270.516 15.4648 270.623 15.1953 270.838C14.9258 271.049 14.6836 271.357 14.4688 271.764C14.2539 272.166 14.0859 272.654 13.9648 273.229L13.3789 276H12.0078ZM20.8027 276.117C20.3965 276.117 20.041 276.082 19.7363 276.012C19.4355 275.945 19.1641 275.848 18.9219 275.719V274.541C19.1719 274.689 19.4531 274.814 19.7656 274.916C20.082 275.014 20.4062 275.062 20.7383 275.062C20.9961 275.062 21.2207 275.027 21.4121 274.957C21.6035 274.887 21.752 274.787 21.8574 274.658C21.9668 274.525 22.0215 274.365 22.0215 274.178C22.0215 274.041 21.9902 273.92 21.9277 273.814C21.8652 273.709 21.7578 273.602 21.6055 273.492C21.4531 273.383 21.2422 273.252 20.9727 273.1C20.6875 272.939 20.4453 272.777 20.2461 272.613C20.0508 272.445 19.9004 272.26 19.7949 272.057C19.6934 271.854 19.6426 271.615 19.6426 271.342C19.6426 270.932 19.7363 270.582 19.9238 270.293C20.1152 270 20.3848 269.777 20.7324 269.625C21.084 269.469 21.498 269.391 21.9746 269.391C22.3574 269.391 22.7188 269.436 23.0586 269.525C23.3984 269.611 23.7129 269.732 24.002 269.889L23.5508 270.908C23.3359 270.787 23.0977 270.684 22.8359 270.598C22.5742 270.508 22.293 270.463 21.9922 270.463C21.7148 270.463 21.4824 270.527 21.2949 270.656C21.1113 270.785 21.0195 270.969 21.0195 271.207C21.0195 271.332 21.0488 271.445 21.1074 271.547C21.1699 271.645 21.2734 271.744 21.418 271.846C21.5625 271.947 21.7598 272.064 22.0098 272.197C22.2793 272.346 22.5195 272.502 22.7305 272.666C22.9414 272.83 23.1074 273.02 23.2285 273.234C23.3496 273.445 23.4102 273.701 23.4102 274.002C23.4102 274.459 23.3027 274.846 23.0879 275.162C22.877 275.475 22.5762 275.713 22.1855 275.877C21.7949 276.037 21.334 276.117 20.8027 276.117Z" fill="black"/>
</svg>
